# File exported by Houdini 21.0.700 (www.sidefx.com)
# 371 points
# 1489 vertices
# 381 primitives
# Bounds: [-0.398633808, 0, -0.398633808] to [0.398633808, 2, 0.398633808]
g 
v 0 0 0
v 0 0.25 0
v 0 0.5 0
v 0 0.75 0
v 0 1 0
v 0 1.25 0
v 0 1.5 0
v 0 1.75 0
v 0 2 0
v -1.66288086e-08 2 -5.40300027e-09
v 2.87211215e-08 0 9.33201161e-09
v 0.0658378229 1.98636127 0
v 0.0626154914 1.98636127 -0.0203450061
v 0.0532639138 1.98636127 -0.0386984982
v 0.0386984982 1.98636127 -0.0532639138
v 0.0203450043 1.98636127 -0.0626154914
v -2.87786239e-09 1.98636127 -0.0658378229
v -0.020345008 1.98636127 -0.062615484
v -0.0386984944 1.98636127 -0.0532639138
v -0.0532639213 1.98636127 -0.0386984944
v -0.0626154914 1.98636127 -0.0203449931
v -0.0658378229 1.98636127 2.1452685e-08
v -0.0626154765 1.98636127 0.0203450322
v -0.0532638915 1.98636127 0.0386985317
v -0.0386984609 1.98636127 0.0532639436
v -0.0203449521 1.98636127 0.0626155064
v 6.35729407e-08 1.98636127 0.0658378229
v 0.0203450751 1.98636127 0.0626154691
v 0.0386985652 1.98636127 0.0532638691
v 0.0532639697 1.98636127 0.0386984311
v 0.0626155138 1.98636127 0.020344913
v 0.129879773 1.94581723 0
v 0.123523012 1.94581723 -0.0401350595
v 0.105074942 1.94581723 -0.076341413
v 0.076341413 1.94581723 -0.105074942
v 0.0401350521 1.94581723 -0.123523012
v -5.67722536e-09 1.94581723 -0.129879773
v -0.0401350632 1.94581723 -0.123522997
v -0.076341413 1.94581723 -0.105074942
v -0.105074957 1.94581723 -0.076341413
v -0.123523019 1.94581723 -0.0401350334
v -0.129879773 1.94581723 4.2320206e-08
v -0.123522989 1.94581723 0.0401351117
v -0.105074897 1.94581723 0.0763414726
v -0.0763413459 1.94581723 0.105075002
v -0.0401349552 1.94581723 0.123523034
v 1.25411802e-07 1.94581723 0.129879773
v 0.0401351936 1.94581723 0.12352296
v 0.0763415471 1.94581723 0.105074845
v 0.105075054 1.94581723 0.0763412789
v 0.123523057 1.94581723 0.040134877
v 0.190378949 1.87947369 0
v 0.181061134 1.87947369 -0.0588303283
v 0.154019803 1.87947369 -0.111901931
v 0.111901931 1.87947369 -0.154019803
v 0.0588303208 1.87947369 -0.181061134
v -8.3217282e-09 1.87947369 -0.190378949
v -0.058830332 1.87947369 -0.181061134
v -0.111901917 1.87947369 -0.154019803
v -0.154019818 1.87947369 -0.111901917
v -0.181061149 1.87947369 -0.058830291
v -0.190378949 1.87947369 6.20333367e-08
v -0.181061104 1.87947369 0.0588304102
v -0.154019743 1.87947369 0.111902021
v -0.111901835 1.87947369 0.154019877
v -0.0588301793 1.87947369 0.181061193
v 1.83829741e-07 1.87947369 0.190378949
v 0.0588305295 1.87947369 0.181061074
v 0.111902133 1.87947369 0.154019669
v 0.154019952 1.87947369 0.111901723
v 0.181061223 1.87947369 0.0588300638
v 0.245685086 1.78914046 0
v 0.233660385 1.78914046 -0.0759208724
v 0.198763415 1.78914046 -0.144410059
v 0.144410059 1.78914046 -0.198763415
v 0.0759208575 1.78914046 -0.233660385
v -1.07392362e-08 1.78914046 -0.245685086
v -0.0759208724 1.78914046 -0.233660385
v -0.144410059 1.78914046 -0.198763415
v -0.198763415 1.78914046 -0.144410059
v -0.233660415 1.78914046 -0.0759208128
v -0.245685086 1.78914046 8.00543631e-08
v -0.23366037 1.78914046 0.0759209692
v -0.198763311 1.78914046 0.144410178
v -0.14440994 1.78914046 0.198763505
v -0.0759206712 1.78914046 0.23366046
v 2.37233309e-07 1.78914046 0.245685086
v 0.0759211257 1.78914046 0.233660325
v 0.144410312 1.78914046 0.198763236
v 0.198763594 1.78914046 0.144409806
v 0.233660504 1.78914046 0.0759205222
v 0.294289559 1.67728162 0
v 0.279885978 1.67728162 -0.090940468
v 0.238085255 1.67728162 -0.172979042
v 0.172979042 1.67728162 -0.238085255
v 0.090940468 1.67728162 -0.279885978
v -1.28638051e-08 1.67728162 -0.294289559
v -0.0909404829 1.67728162 -0.279885978
v -0.172979042 1.67728162 -0.238085255
v -0.23808527 1.67728162 -0.172979042
v -0.279886007 1.67728162 -0.0909404084
v -0.294289559 1.67728162 9.58917141e-08
v -0.279885948 1.67728162 0.0909405947
v -0.238085136 1.67728162 0.172979191
v -0.172978893 1.67728162 0.238085374
v -0.090940237 1.67728162 0.279886067
v 2.84165736e-07 1.67728162 0.294289559
v 0.0909407809 1.67728162 0.279885888
v 0.17297934 1.67728162 0.238085032
v 0.238085464 1.67728162 0.172978744
v 0.279886127 1.67728162 0.0909400582
v 0.334866583 1.54694819 0
v 0.318477035 1.54694819 -0.103479467
v 0.270912737 1.54694819 -0.196829632
v 0.196829632 1.54694819 -0.270912737
v 0.10347946 1.54694819 -0.318477035
v -1.46374832e-08 1.54694819 -0.334866583
v -0.103479467 1.54694819 -0.318477035
v -0.196829602 1.54694819 -0.270912737
v -0.270912766 1.54694819 -0.196829602
v -0.318477064 1.54694819 -0.1034794
v -0.334866583 1.54694819 1.09113387e-07
v -0.318477005 1.54694819 0.103479601
v -0.270912617 1.54694819 0.196829781
v -0.196829453 1.54694819 0.270912886
v -0.103479199 1.54694819 0.318477124
v 3.23346882e-07 1.54694819 0.334866583
v 0.103479818 1.54694819 0.318476915
v 0.196829975 1.54694819 0.270912498
v 0.270913005 1.54694819 0.196829274
v 0.318477184 1.54694819 0.10347899
v 0.366309345 1.40169549 0
v 0.348380893 1.40169549 -0.113195814
v 0.296350479 1.40169549 -0.215311214
v 0.215311214 1.40169549 -0.296350479
v 0.113195799 1.40169549 -0.348380893
v -1.60118905e-08 1.40169549 -0.366309345
v -0.113195829 1.40169549 -0.348380893
v -0.215311199 1.40169549 -0.296350479
v -0.296350509 1.40169549 -0.215311199
v -0.348380893 1.40169549 -0.11319574
v -0.366309345 1.40169549 1.19358731e-07
v -0.348380834 1.40169549 0.113195971
v -0.29635033 1.40169549 0.215311393
v -0.215311036 1.40169549 0.296350628
v -0.113195516 1.40169549 0.348380983
v 3.53708003e-07 1.40169549 0.366309345
v 0.113196194 1.40169549 0.348380774
v 0.215311602 1.40169549 0.296350211
v 0.296350777 1.40169549 0.215310842
v 0.348381042 1.40169549 0.1131953
v 0.387760103 1.24548554 0
v 0.368781775 1.24548554 -0.119824462
v 0.31370452 1.24548554 -0.227919653
v 0.227919653 1.24548554 -0.31370452
v 0.119824447 1.24548554 -0.368781775
v -1.69495333e-08 1.24548554 -0.387760103
v -0.119824469 1.24548554 -0.368781775
v -0.227919623 1.24548554 -0.31370452
v -0.31370455 1.24548554 -0.227919623
v -0.368781805 1.24548554 -0.119824387
v -0.387760103 1.24548554 1.26348283e-07
v -0.368781716 1.24548554 0.119824626
v -0.313704371 1.24548554 0.227919847
v -0.227919459 1.24548554 0.313704669
v -0.119824149 1.24548554 0.368781865
v 3.74420836e-07 1.24548554 0.387760103
v 0.119824864 1.24548554 0.368781656
v 0.227920055 1.24548554 0.313704222
v 0.313704818 1.24548554 0.227919251
v 0.368781924 1.24548554 0.119823925
v 0.398633808 1.08257937 0
v 0.3791233 1.08257937 -0.123184621
v 0.32250151 1.08257937 -0.234311059
v 0.234311059 1.08257937 -0.32250151
v 0.123184614 1.08257937 -0.3791233
v -1.74248367e-08 1.08257937 -0.398633808
v -0.123184636 1.08257937 -0.379123271
v -0.234311029 1.08257937 -0.32250151
v -0.32250154 1.08257937 -0.234311029
v -0.3791233 1.08257937 -0.123184539
v -0.398633808 1.08257937 1.2989139e-07
v -0.379123211 1.08257937 0.123184793
v -0.322501391 1.08257937 0.234311253
v -0.234310851 1.08257937 0.322501689
v -0.123184301 1.08257937 0.37912339
v 3.8492044e-07 1.08257937 0.398633808
v 0.123185039 1.08257937 0.379123151
v 0.234311461 1.08257937 0.322501242
v 0.322501838 1.08257937 0.234310627
v 0.379123449 1.08257937 0.123184063
v 0.398633808 0.917420745 0
v 0.3791233 0.917420745 -0.123184621
v 0.32250151 0.917420745 -0.234311059
v 0.234311059 0.917420745 -0.32250151
v 0.123184614 0.917420745 -0.3791233
v -1.74248367e-08 0.917420745 -0.398633808
v -0.123184636 0.917420745 -0.379123271
v -0.234311029 0.917420745 -0.32250151
v -0.32250154 0.917420745 -0.234311029
v -0.3791233 0.917420745 -0.123184539
v -0.398633808 0.917420745 1.2989139e-07
v -0.379123211 0.917420745 0.123184793
v -0.322501391 0.917420745 0.234311253
v -0.234310851 0.917420745 0.322501689
v -0.123184301 0.917420745 0.37912339
v 3.8492044e-07 0.917420745 0.398633808
v 0.123185039 0.917420745 0.379123151
v 0.234311461 0.917420745 0.322501242
v 0.322501838 0.917420745 0.234310627
v 0.379123449 0.917420745 0.123184063
v 0.387760133 0.754514575 0
v 0.368781775 0.754514575 -0.119824469
v 0.31370452 0.754514575 -0.227919683
v 0.227919683 0.754514575 -0.31370452
v 0.119824462 0.754514575 -0.368781775
v -1.69495333e-08 0.754514575 -0.387760133
v -0.119824484 0.754514575 -0.368781775
v -0.227919653 0.754514575 -0.31370452
v -0.31370455 0.754514575 -0.227919653
v -0.368781805 0.754514575 -0.119824387
v -0.387760133 0.754514575 1.26348297e-07
v -0.368781745 0.754514575 0.11982464
v -0.313704401 0.754514575 0.227919862
v -0.227919459 0.754514575 0.313704699
v -0.119824164 0.754514575 0.368781894
v 3.74420864e-07 0.754514575 0.387760133
v 0.119824879 0.754514575 0.368781656
v 0.227920055 0.754514575 0.313704252
v 0.313704818 0.754514575 0.227919266
v 0.368781954 0.754514575 0.119823925
v 0.366309345 0.598304629 0
v 0.348380893 0.598304629 -0.113195814
v 0.296350479 0.598304629 -0.215311214
v 0.215311214 0.598304629 -0.296350479
v 0.113195799 0.598304629 -0.348380893
v -1.60118905e-08 0.598304629 -0.366309345
v -0.113195829 0.598304629 -0.348380893
v -0.215311199 0.598304629 -0.296350479
v -0.296350509 0.598304629 -0.215311199
v -0.348380893 0.598304629 -0.11319574
v -0.366309345 0.598304629 1.19358731e-07
v -0.348380834 0.598304629 0.113195971
v -0.29635033 0.598304629 0.215311393
v -0.215311036 0.598304629 0.296350628
v -0.113195516 0.598304629 0.348380983
v 3.53708003e-07 0.598304629 0.366309345
v 0.113196194 0.598304629 0.348380774
v 0.215311602 0.598304629 0.296350211
v 0.296350777 0.598304629 0.215310842
v 0.348381042 0.598304629 0.1131953
v 0.334866613 0.453051925 0
v 0.318477064 0.453051925 -0.103479467
v 0.270912766 0.453051925 -0.196829647
v 0.196829647 0.453051925 -0.270912766
v 0.10347946 0.453051925 -0.318477064
v -1.4637485e-08 0.453051925 -0.334866613
v -0.103479482 0.453051925 -0.318477035
v -0.196829632 0.453051925 -0.270912766
v -0.270912796 0.453051925 -0.196829632
v -0.318477094 0.453051925 -0.1034794
v -0.334866613 0.453051925 1.09113387e-07
v -0.318477005 0.453051925 0.103479616
v -0.270912647 0.453051925 0.196829811
v -0.196829468 0.453051925 0.270912915
v -0.103479207 0.453051925 0.318477154
v 3.2334691e-07 0.453051925 0.334866613
v 0.103479825 0.453051925 0.318476945
v 0.19682999 0.453051925 0.270912528
v 0.270913035 0.453051925 0.196829289
v 0.318477213 0.453051925 0.103479005
v 0.294289589 0.322718501 0
v 0.279886037 0.322718501 -0.0909404904
v 0.23808527 0.322718501 -0.172979087
v 0.172979087 0.322718501 -0.23808527
v 0.0909404755 0.322718501 -0.279886037
v -1.28638069e-08 0.322718501 -0.294289589
v -0.0909404978 0.322718501 -0.279886037
v -0.172979057 0.322718501 -0.23808527
v -0.2380853 0.322718501 -0.172979057
v -0.279886067 0.322718501 -0.0909404308
v -0.294289589 0.322718501 9.58917212e-08
v -0.279885978 0.322718501 0.0909406096
v -0.238085181 0.322718501 0.172979221
v -0.172978923 0.322718501 0.238085419
v -0.0909402519 0.322718501 0.279886097
v 2.84165793e-07 0.322718501 0.294289589
v 0.0909407958 0.322718501 0.279885948
v 0.172979385 0.322718501 0.238085076
v 0.238085508 0.322718501 0.172978759
v 0.279886156 0.322718501 0.0909400806
v 0.245685101 0.210859537 0
v 0.233660415 0.210859537 -0.0759208724
v 0.198763415 0.210859537 -0.144410074
v 0.144410074 0.210859537 -0.198763415
v 0.0759208724 0.210859537 -0.233660415
v -1.07392371e-08 0.210859537 -0.245685101
v -0.0759208798 0.210859537 -0.233660415
v -0.144410059 0.210859537 -0.198763415
v -0.198763445 0.210859537 -0.144410059
v -0.233660445 0.210859537 -0.0759208202
v -0.245685101 0.210859537 8.00543702e-08
v -0.233660385 0.210859537 0.0759209767
v -0.198763341 0.210859537 0.144410193
v -0.14440994 0.210859537 0.198763534
v -0.0759206787 0.210859537 0.233660489
v 2.37233323e-07 0.210859537 0.245685101
v 0.0759211332 0.210859537 0.23366034
v 0.144410327 0.210859537 0.198763251
v 0.198763609 0.210859537 0.14440982
v 0.233660534 0.210859537 0.0759205297
v 0.190378994 0.120526254 0
v 0.181061193 0.120526254 -0.0588303469
v 0.154019833 0.120526254 -0.111901961
v 0.111901961 0.120526254 -0.154019833
v 0.0588303395 0.120526254 -0.181061193
v -8.32172997e-09 0.120526254 -0.190378994
v -0.0588303506 0.120526254 -0.181061178
v -0.111901954 0.120526254 -0.154019833
v -0.154019848 0.120526254 -0.111901954
v -0.181061193 0.120526254 -0.0588303022
v -0.190378994 0.120526254 6.20333509e-08
v -0.181061149 0.120526254 0.0588304214
v -0.154019773 0.120526254 0.111902051
v -0.111901857 0.120526254 0.154019922
v -0.0588301904 0.120526254 0.181061238
v 1.83829783e-07 0.120526254 0.190378994
v 0.0588305406 0.120526254 0.181061119
v 0.111902155 0.120526254 0.154019699
v 0.154019997 0.120526254 0.11190176
v 0.181061253 0.120526254 0.0588300787
v 0.129879817 0.0541827679 0
v 0.123523057 0.0541827679 -0.0401350744
v 0.105074979 0.0541827679 -0.0763414428
v 0.0763414428 0.0541827679 -0.105074979
v 0.040135067 0.0541827679 -0.123523057
v -5.67722713e-09 0.0541827679 -0.129879817
v -0.0401350781 0.0541827679 -0.123523049
v -0.0763414353 0.0541827679 -0.105074979
v -0.105074994 0.0541827679 -0.0763414353
v -0.123523057 0.0541827679 -0.0401350483
v -0.129879817 0.0541827679 4.23202202e-08
v -0.123523034 0.0541827679 0.0401351266
v -0.105074942 0.0541827679 0.0763415024
v -0.0763413757 0.0541827679 0.105075039
v -0.0401349701 0.0541827679 0.123523079
v 1.25411859e-07 0.0541827679 0.129879817
v 0.0401352085 0.0541827679 0.123523012
v 0.0763415769 0.0541827679 0.105074897
v 0.105075084 0.0541827679 0.0763413012
v 0.123523109 0.0541827679 0.0401348919
v 0.0658378676 0.0136387348 0
v 0.0626155362 0.0136387348 -0.020345021
v 0.0532639511 0.0136387348 -0.038698528
v 0.038698528 0.0136387348 -0.0532639511
v 0.0203450192 0.0136387348 -0.0626155362
v -2.87786461e-09 0.0136387348 -0.0658378676
v -0.0203450229 0.0136387348 -0.0626155362
v -0.0386985205 0.0136387348 -0.0532639511
v -0.0532639585 0.0136387348 -0.0386985205
v -0.0626155362 0.0136387348 -0.020345008
v -0.0658378676 0.0136387348 2.14527009e-08
v -0.0626155213 0.0136387348 0.0203450471
v -0.0532639325 0.0136387348 0.0386985578
v -0.0386984907 0.0136387348 0.0532639809
v -0.020344967 0.0136387348 0.0626155511
v 6.35729904e-08 0.0136387348 0.0658378676
v 0.02034509 0.0136387348 0.0626155064
v 0.038698595 0.0136387348 0.0532639101
v 0.0532640032 0.0136387348 0.0386984572
v 0.062615566 0.0136387348 0.0203449279
g 
l 9 8 7 6 5 4 3 2 1
f 10 12 13
f 10 13 14
f 10 14 15
f 10 15 16
f 10 16 17
f 10 17 18
f 10 18 19
f 10 19 20
f 10 20 21
f 10 21 22
f 10 22 23
f 10 23 24
f 10 24 25
f 10 25 26
f 10 26 27
f 10 27 28
f 10 28 29
f 10 29 30
f 10 30 31
f 10 31 12
f 12 32 33 13
f 13 33 34 14
f 14 34 35 15
f 15 35 36 16
f 16 36 37 17
f 17 37 38 18
f 18 38 39 19
f 19 39 40 20
f 20 40 41 21
f 21 41 42 22
f 22 42 43 23
f 23 43 44 24
f 24 44 45 25
f 25 45 46 26
f 26 46 47 27
f 27 47 48 28
f 28 48 49 29
f 29 49 50 30
f 30 50 51 31
f 31 51 32 12
f 32 52 53 33
f 33 53 54 34
f 34 54 55 35
f 35 55 56 36
f 36 56 57 37
f 37 57 58 38
f 38 58 59 39
f 39 59 60 40
f 40 60 61 41
f 41 61 62 42
f 42 62 63 43
f 43 63 64 44
f 44 64 65 45
f 45 65 66 46
f 46 66 67 47
f 47 67 68 48
f 48 68 69 49
f 49 69 70 50
f 50 70 71 51
f 51 71 52 32
f 52 72 73 53
f 53 73 74 54
f 54 74 75 55
f 55 75 76 56
f 56 76 77 57
f 57 77 78 58
f 58 78 79 59
f 59 79 80 60
f 60 80 81 61
f 61 81 82 62
f 62 82 83 63
f 63 83 84 64
f 64 84 85 65
f 65 85 86 66
f 66 86 87 67
f 67 87 88 68
f 68 88 89 69
f 69 89 90 70
f 70 90 91 71
f 71 91 72 52
f 72 92 93 73
f 73 93 94 74
f 74 94 95 75
f 75 95 96 76
f 76 96 97 77
f 77 97 98 78
f 78 98 99 79
f 79 99 100 80
f 80 100 101 81
f 81 101 102 82
f 82 102 103 83
f 83 103 104 84
f 84 104 105 85
f 85 105 106 86
f 86 106 107 87
f 87 107 108 88
f 88 108 109 89
f 89 109 110 90
f 90 110 111 91
f 91 111 92 72
f 92 112 113 93
f 93 113 114 94
f 94 114 115 95
f 95 115 116 96
f 96 116 117 97
f 97 117 118 98
f 98 118 119 99
f 99 119 120 100
f 100 120 121 101
f 101 121 122 102
f 102 122 123 103
f 103 123 124 104
f 104 124 125 105
f 105 125 126 106
f 106 126 127 107
f 107 127 128 108
f 108 128 129 109
f 109 129 130 110
f 110 130 131 111
f 111 131 112 92
f 112 132 133 113
f 113 133 134 114
f 114 134 135 115
f 115 135 136 116
f 116 136 137 117
f 117 137 138 118
f 118 138 139 119
f 119 139 140 120
f 120 140 141 121
f 121 141 142 122
f 122 142 143 123
f 123 143 144 124
f 124 144 145 125
f 125 145 146 126
f 126 146 147 127
f 127 147 148 128
f 128 148 149 129
f 129 149 150 130
f 130 150 151 131
f 131 151 132 112
f 132 152 153 133
f 133 153 154 134
f 134 154 155 135
f 135 155 156 136
f 136 156 157 137
f 137 157 158 138
f 138 158 159 139
f 139 159 160 140
f 140 160 161 141
f 141 161 162 142
f 142 162 163 143
f 143 163 164 144
f 144 164 165 145
f 145 165 166 146
f 146 166 167 147
f 147 167 168 148
f 148 168 169 149
f 149 169 170 150
f 150 170 171 151
f 151 171 152 132
f 152 172 173 153
f 153 173 174 154
f 154 174 175 155
f 155 175 176 156
f 156 176 177 157
f 157 177 178 158
f 158 178 179 159
f 159 179 180 160
f 160 180 181 161
f 161 181 182 162
f 162 182 183 163
f 163 183 184 164
f 164 184 185 165
f 165 185 186 166
f 166 186 187 167
f 167 187 188 168
f 168 188 189 169
f 169 189 190 170
f 170 190 191 171
f 171 191 172 152
f 172 192 193 173
f 173 193 194 174
f 174 194 195 175
f 175 195 196 176
f 176 196 197 177
f 177 197 198 178
f 178 198 199 179
f 179 199 200 180
f 180 200 201 181
f 181 201 202 182
f 182 202 203 183
f 183 203 204 184
f 184 204 205 185
f 185 205 206 186
f 186 206 207 187
f 187 207 208 188
f 188 208 209 189
f 189 209 210 190
f 190 210 211 191
f 191 211 192 172
f 192 212 213 193
f 193 213 214 194
f 194 214 215 195
f 195 215 216 196
f 196 216 217 197
f 197 217 218 198
f 198 218 219 199
f 199 219 220 200
f 200 220 221 201
f 201 221 222 202
f 202 222 223 203
f 203 223 224 204
f 204 224 225 205
f 205 225 226 206
f 206 226 227 207
f 207 227 228 208
f 208 228 229 209
f 209 229 230 210
f 210 230 231 211
f 211 231 212 192
f 212 232 233 213
f 213 233 234 214
f 214 234 235 215
f 215 235 236 216
f 216 236 237 217
f 217 237 238 218
f 218 238 239 219
f 219 239 240 220
f 220 240 241 221
f 221 241 242 222
f 222 242 243 223
f 223 243 244 224
f 224 244 245 225
f 225 245 246 226
f 226 246 247 227
f 227 247 248 228
f 228 248 249 229
f 229 249 250 230
f 230 250 251 231
f 231 251 232 212
f 232 252 253 233
f 233 253 254 234
f 234 254 255 235
f 235 255 256 236
f 236 256 257 237
f 237 257 258 238
f 238 258 259 239
f 239 259 260 240
f 240 260 261 241
f 241 261 262 242
f 242 262 263 243
f 243 263 264 244
f 244 264 265 245
f 245 265 266 246
f 246 266 267 247
f 247 267 268 248
f 248 268 269 249
f 249 269 270 250
f 250 270 271 251
f 251 271 252 232
f 252 272 273 253
f 253 273 274 254
f 254 274 275 255
f 255 275 276 256
f 256 276 277 257
f 257 277 278 258
f 258 278 279 259
f 259 279 280 260
f 260 280 281 261
f 261 281 282 262
f 262 282 283 263
f 263 283 284 264
f 264 284 285 265
f 265 285 286 266
f 266 286 287 267
f 267 287 288 268
f 268 288 289 269
f 269 289 290 270
f 270 290 291 271
f 271 291 272 252
f 272 292 293 273
f 273 293 294 274
f 274 294 295 275
f 275 295 296 276
f 276 296 297 277
f 277 297 298 278
f 278 298 299 279
f 279 299 300 280
f 280 300 301 281
f 281 301 302 282
f 282 302 303 283
f 283 303 304 284
f 284 304 305 285
f 285 305 306 286
f 286 306 307 287
f 287 307 308 288
f 288 308 309 289
f 289 309 310 290
f 290 310 311 291
f 291 311 292 272
f 292 312 313 293
f 293 313 314 294
f 294 314 315 295
f 295 315 316 296
f 296 316 317 297
f 297 317 318 298
f 298 318 319 299
f 299 319 320 300
f 300 320 321 301
f 301 321 322 302
f 302 322 323 303
f 303 323 324 304
f 304 324 325 305
f 305 325 326 306
f 306 326 327 307
f 307 327 328 308
f 308 328 329 309
f 309 329 330 310
f 310 330 331 311
f 311 331 312 292
f 312 332 333 313
f 313 333 334 314
f 314 334 335 315
f 315 335 336 316
f 316 336 337 317
f 317 337 338 318
f 318 338 339 319
f 319 339 340 320
f 320 340 341 321
f 321 341 342 322
f 322 342 343 323
f 323 343 344 324
f 324 344 345 325
f 325 345 346 326
f 326 346 347 327
f 327 347 348 328
f 328 348 349 329
f 329 349 350 330
f 330 350 351 331
f 331 351 332 312
f 332 352 353 333
f 333 353 354 334
f 334 354 355 335
f 335 355 356 336
f 336 356 357 337
f 337 357 358 338
f 338 358 359 339
f 339 359 360 340
f 340 360 361 341
f 341 361 362 342
f 342 362 363 343
f 343 363 364 344
f 344 364 365 345
f 345 365 366 346
f 346 366 367 347
f 347 367 368 348
f 348 368 369 349
f 349 369 370 350
f 350 370 371 351
f 351 371 352 332
f 352 11 353
f 353 11 354
f 354 11 355
f 355 11 356
f 356 11 357
f 357 11 358
f 358 11 359
f 359 11 360
f 360 11 361
f 361 11 362
f 362 11 363
f 363 11 364
f 364 11 365
f 365 11 366
f 366 11 367
f 367 11 368
f 368 11 369
f 369 11 370
f 370 11 371
f 371 11 352
