# File exported by Houdini 21.0.700 (www.sidefx.com)
# 9 points
# 9 vertices
# 1 primitives
# Bounds: [0, 0, 0] to [0, 2, 0]
g 
v 0 0 0 0.417231798 0.617775917 0.922370076
v 0 0.25 0 0.00292515755 0.916211128 0.149107695
v 0 0.5 0 0.813432217 0.519916773 0.0862303972
v 0 0.75 0 0.262380481 0.0936818123 0.80475235
v 0 1 0 0.0022482872 0.119826913 0.869107842
v 0 1.25 0 0.189493775 0.974494576 0.876262426
v 0 1.5 0 0.116196513 0.922370076 0.0249513388
v 0 1.75 0 0.617775917 0.149107695 0.748144746
v 0 2 0 0.916211128 0.0862303972 0.374562502
vt 0 1 0
vt 0 0.875 0
vt 0 0.75 0
vt 0 0.625 0
vt 0 0.5 0
vt 0 0.375 0
vt 0 0.25 0
vt 0 0.125 0
vt 0 0 0
vn 0 0 0
vn 0 0 0
vn 0 0 0
vn 0 0 0
vn 0 0 0
vn 0 0 0
vn 0 0 0
vn 0 0 0
vn 0 0 0
g 
l 9/1/1 8/2/2 7/3/3 6/4/4 5/5/5 4/6/6 3/7/7 2/8/8 1/9/9
