# File exported by Houdini 21.0.700 (www.sidefx.com)
# 11 points
# 11 vertices
# 1 primitives
# Bounds: [0, 0, 0] to [0, 1, 0]
g 
v 0 0 0 0.417231798 0.617775917 0.922370076
v 0 0.100000001 0 0.00292515755 0.916211128 0.149107695
v 0 0.200000003 0 0.813432217 0.519916773 0.0862303972
v 0 0.300000012 0 0.262380481 0.0936818123 0.80475235
v 0 0.400000006 0 0.0022482872 0.119826913 0.869107842
v 0 0.5 0 0.189493775 0.974494576 0.876262426
v 0 0.600000024 0 0.116196513 0.922370076 0.0249513388
v 0 0.699999988 0 0.617775917 0.149107695 0.748144746
v 0 0.800000012 0 0.916211128 0.0862303972 0.374562502
v 0 0.899999976 0 0.519916773 0.80475235 0.16958499
v 0 1 0 0.0936818123 0.869107842 0.355336428
vt 0 1 0
vt 0 0.899999976 0
vt 0 0.800000012 0
vt 0 0.699999988 0
vt 0 0.600000024 0
vt 0 0.5 0
vt 0 0.400000006 0
vt 0 0.300000012 0
vt 0 0.200000003 0
vt 0 0.100000001 0
vt 0 0 0
vn 0 0 0
vn 0 0 0
vn 0 0 0
vn 0 0 0
vn 0 0 0
vn 0 0 0
vn 0 0 0
vn 0 0 0
vn 0 0 0
vn 0 0 0
vn 0 0 0
g 
l 11/1/1 10/2/2 9/3/3 8/4/4 7/5/5 6/6/6 5/7/7 4/8/8 3/9/9 2/10/10 1/11/11
