# File exported by Houdini 21.0.700 (www.sidefx.com)
# 50 points
# 0 vertices
# 0 primitives
# Bounds: [-0.98702538, -0.991049111, -0.970559955] to [0.988871872, 0.981237948, 0.953873277]
g 
v 0.557650566 -0.498925865 0.654918015 0.417231798 0.617775917 0.922370076
v -0.123304501 0.10031499 -0.970559955 0.00292515755 0.916211128 0.149107695
v 0.117714301 -0.215916708 -0.956076622 0.813432217 0.519916773 0.0862303972
v 0.412358344 0.889089763 0.15560399 0.262380481 0.0936818123 0.80475235
v -0.98702538 -0.0224342253 -0.0761181489 0.0022482872 0.119826913 0.869107842
v 0.0101954443 -0.480102867 0.872924745 0.189493775 0.974494576 0.876262426
v 0.730273783 0.12835528 0.649393916 0.116196513 0.922370076 0.0249513388
v 0.276579499 0.438520163 0.84212482 0.617775917 0.149107695 0.748144746
v -0.341622293 0.61418879 0.693827093 0.916211128 0.0862303972 0.374562502
v 0.608337998 -0.750854373 0.215585798 0.519916773 0.80475235 0.16958499
v 0.145055667 0.804604828 0.560947955 0.0936818123 0.869107842 0.355336428
v -0.854854763 -0.513195813 0.00793829374 0.119826913 0.876262426 0.672350168
v 0.71051228 -0.363849491 -0.576321006 0.974494576 0.0249513388 0.942506075
v 0.864690065 0.495475918 -0.0243767276 0.922370076 0.748144746 0.600252032
v 0.901145995 -0.213482782 0.342396438 0.149107695 0.374562502 0.391067982
v -0.856273234 -0.169360787 -0.465777904 0.0862303972 0.16958499 0.855068207
v 0.515895903 -0.0397044457 -0.847295702 0.80475235 0.355336428 0.0525585413
v 0.325585246 -0.0815149397 0.926753819 0.869107842 0.672350168 0.992913604
v -0.678179562 0.681984305 0.244623512 0.876262426 0.942506075 0.722306013
v -0.916380644 0.338281512 0.126322791 0.0249513388 0.600252032 0.950171232
v 0.988871872 0.0798538029 -0.00467263581 0.748144746 0.391067982 0.930239558
v 0.320284694 -0.561306834 -0.746210754 0.374562502 0.855068207 0.572112799
v -0.199737728 0.15062885 0.953873277 0.16958499 0.0525585413 0.995248199
v 0.851300776 0.170288295 -0.477466166 0.355336428 0.992913604 0.217380881
v -0.818930328 0.361596704 -0.415125042 0.672350168 0.722306013 0.938194156
v 0.71301353 0.546388447 0.423243403 0.942506075 0.950171232 0.337844372
v -0.657447338 -0.586473167 -0.445565194 0.600252032 0.930239558 0.994804502
v -0.452447057 -0.649461389 0.59176594 0.391067982 0.572112799 0.281177759
v -0.495027423 -0.270522565 -0.821200669 0.855068207 0.995248199 0.212849021
v -0.526111126 -0.216158196 0.810426235 0.0525585413 0.217380881 0.796452761
v 0.504419088 0.375663549 -0.759569228 0.992913604 0.938194156 0.343128085
v 0.0732024908 -0.854935527 -0.50481534 0.722306013 0.337844372 0.582494974
v -0.587375641 0.126280859 -0.778203428 0.950171232 0.994804502 0.862383842
v 0.0751930773 0.473113775 -0.867262661 0.930239558 0.281177759 0.814106822
v -0.353263378 -0.874036014 -0.322434872 0.572112799 0.212849021 0.164659739
v -0.874454975 -0.229726955 0.401293546 0.995248199 0.796452761 0.649416685
v -0.415363133 0.521314442 -0.739759445 0.217380881 0.343128085 0.391641617
v -0.209145159 -0.566163063 -0.78772223 0.938194156 0.582494974 0.358933687
v 0.885859311 -0.402806193 -0.155143663 0.337844372 0.862383842 0.302092552
v 0.520167708 -0.793985009 -0.282823265 0.994804502 0.814106822 0.935376287
v -0.570616603 0.76662302 -0.253412724 0.281177759 0.164659739 0.964297414
v -0.725885749 0.252098173 0.62858057 0.212849021 0.649416685 0.743591428
v 0.0661760494 -0.874135315 0.471708775 0.796452761 0.391641617 0.696751952
v 0.316865593 0.766862452 -0.543204308 0.343128085 0.358933687 0.87718761
v -0.15010047 0.822074354 -0.535859466 0.582494974 0.302092552 0.44762373
v 0.624224603 0.717630863 -0.289406508 0.862383842 0.935376287 0.142826438
v -0.509500682 -0.8395257 0.154814109 0.814106822 0.964297414 0.0797046423
v 0.0239715781 0.981237948 -0.139355928 0.164659739 0.743591428 0.534261107
v -0.261658132 0.92757231 0.231320411 0.649416685 0.696751952 0.004083395
v 0.0671727508 -0.991049111 -0.00619996153 0.391641617 0.87718761 0.0364749432
