# File exported by Houdini 21.0.700 (www.sidefx.com)
# 122 points
# 504 vertices
# 132 primitives
# Bounds: [-0.989821434, -1, -0.989821434] to [0.989821434, 1, 0.989821434]
g 
v -3.7855159e-08 1 -2.18557208e-08 0.417231798 0.617775917 0.922370076
v -3.7855159e-08 -1 -2.18557208e-08 0.00292515755 0.916211128 0.149107695
v 0.281732529 0.959492981 0 0.813432217 0.519916773 0.0862303972
v 0.24398753 0.959492981 -0.140866265 0.262380481 0.0936818123 0.80475235
v 0.14086625 0.959492981 -0.243987545 0.0022482872 0.119826913 0.869107842
v -1.23149198e-08 0.959492981 -0.281732529 0.189493775 0.974494576 0.876262426
v -0.14086628 0.959492981 -0.24398753 0.116196513 0.922370076 0.0249513388
v -0.24398753 0.959492981 -0.14086628 0.617775917 0.149107695 0.748144746
v -0.281732529 0.959492981 -4.25404281e-08 0.916211128 0.0862303972 0.374562502
v -0.24398756 0.959492981 0.140866205 0.519916773 0.80475235 0.16958499
v -0.140866354 0.959492981 0.243987471 0.0936818123 0.869107842 0.355336428
v -1.30980922e-07 0.959492981 0.281732529 0.119826913 0.876262426 0.672350168
v 0.140866116 0.959492981 0.243987605 0.974494576 0.0249513388 0.942506075
v 0.243987441 0.959492981 0.140866429 0.922370076 0.748144746 0.600252032
v 0.540640831 0.841253519 0 0.149107695 0.374562502 0.391067982
v 0.4682087 0.841253519 -0.270320415 0.0862303972 0.16958499 0.855068207
v 0.270320386 0.841253519 -0.46820873 0.80475235 0.355336428 0.0525585413
v -2.36321611e-08 0.841253519 -0.540640831 0.869107842 0.672350168 0.992913604
v -0.270320445 0.841253519 -0.4682087 0.876262426 0.942506075 0.722306013
v -0.4682087 0.841253519 -0.270320445 0.0249513388 0.600252032 0.950171232
v -0.540640831 0.841253519 -8.16344965e-08 0.748144746 0.391067982 0.930239558
v -0.46820876 0.841253519 0.270320296 0.374562502 0.855068207 0.572112799
v -0.270320565 0.841253519 0.468208581 0.16958499 0.0525585413 0.995248199
v -2.51350571e-07 0.841253519 0.540640831 0.355336428 0.992913604 0.217380881
v 0.270320147 0.841253519 0.468208849 0.672350168 0.722306013 0.938194156
v 0.468208522 0.841253519 0.270320743 0.942506075 0.950171232 0.337844372
v 0.755749583 0.654860735 0 0.600252032 0.930239558 0.994804502
v 0.654498339 0.654860735 -0.377874792 0.391067982 0.572112799 0.281177759
v 0.377874762 0.654860735 -0.654498398 0.855068207 0.995248199 0.212849021
v -3.3034862e-08 0.654860735 -0.755749583 0.0525585413 0.217380881 0.796452761
v -0.377874851 0.654860735 -0.654498339 0.992913604 0.938194156 0.343128085
v -0.654498339 0.654860735 -0.377874851 0.722306013 0.337844372 0.582494974
v -0.755749583 0.654860735 -1.14115018e-07 0.950171232 0.994804502 0.862383842
v -0.654498398 0.654860735 0.377874643 0.930239558 0.281177759 0.814106822
v -0.37787503 0.654860735 0.654498219 0.572112799 0.212849021 0.164659739
v -3.51357272e-07 0.654860735 0.755749583 0.995248199 0.796452761 0.649416685
v 0.377874404 0.654860735 0.654498577 0.217380881 0.343128085 0.391641617
v 0.6544981 0.654860735 0.377875239 0.938194156 0.582494974 0.358933687
v 0.909631968 0.415415019 0 0.337844372 0.862383842 0.302092552
v 0.78776437 0.415415019 -0.454815984 0.994804502 0.814106822 0.935376287
v 0.454815954 0.415415019 -0.78776443 0.281177759 0.164659739 0.964297414
v -3.97612752e-08 0.415415019 -0.909631968 0.212849021 0.649416685 0.743591428
v -0.454816043 0.415415019 -0.78776437 0.796452761 0.391641617 0.696751952
v -0.78776437 0.415415019 -0.454816043 0.343128085 0.358933687 0.87718761
v -0.909631968 0.415415019 -1.37350611e-07 0.582494974 0.302092552 0.44762373
v -0.78776449 0.415415019 0.454815805 0.862383842 0.935376287 0.142826438
v -0.454816252 0.415415019 0.787764192 0.814106822 0.964297414 0.0797046423
v -4.22899092e-07 0.415415019 0.909631968 0.164659739 0.743591428 0.534261107
v 0.454815537 0.415415019 0.787764668 0.649416685 0.696751952 0.004083395
v 0.787764132 0.415415019 0.45481652 0.391641617 0.87718761 0.0364749432
v 0.989821434 0.142314851 0 0.358933687 0.44762373 0.828377604
v 0.857210517 0.142314851 -0.494910717 0.302092552 0.142826438 0.110821366
v 0.494910687 0.142314851 -0.857210577 0.935376287 0.0797046423 0.430844784
v -4.32664677e-08 0.142314851 -0.989821434 0.964297414 0.534261107 0.218543887
v -0.494910777 0.142314851 -0.857210517 0.743591428 0.004083395 0.128703117
v -0.857210517 0.142314851 -0.494910777 0.696751952 0.0364749432 0.706351876
v -0.989821434 0.142314851 -1.49458884e-07 0.87718761 0.828377604 0.655284524
v -0.857210636 0.142314851 0.494910508 0.44762373 0.110821366 0.586726189
v -0.494911015 0.142314851 0.857210338 0.142826438 0.430844784 0.0241510868
v -4.60180161e-07 0.142314851 0.989821434 0.0797046423 0.218543887 0.742024779
v 0.49491021 0.142314851 0.857210815 0.534261107 0.128703117 0.869007945
v 0.857210219 0.142314851 0.494911313 0.004083395 0.706351876 0.381928563
v 0.989821434 -0.142314821 0 0.0364749432 0.655284524 0.861792564
v 0.857210517 -0.142314821 -0.494910717 0.828377604 0.586726189 0.854431152
v 0.494910687 -0.142314821 -0.857210577 0.110821366 0.0241510868 0.678393602
v -4.32664677e-08 -0.142314821 -0.989821434 0.430844784 0.742024779 0.75284481
v -0.494910777 -0.142314821 -0.857210517 0.218543887 0.869007945 0.51347065
v -0.857210517 -0.142314821 -0.494910777 0.128703117 0.381928563 0.320637465
v -0.989821434 -0.142314821 -1.49458884e-07 0.706351876 0.861792564 0.630628705
v -0.857210636 -0.142314821 0.494910508 0.655284524 0.854431152 0.575478077
v -0.494911015 -0.142314821 0.857210338 0.586726189 0.678393602 0.000996947289
v -4.60180161e-07 -0.142314821 0.989821434 0.0241510868 0.75284481 0.077708602
v 0.49491021 -0.142314821 0.857210815 0.742024779 0.51347065 0.405657053
v 0.857210219 -0.142314821 0.494911313 0.869007945 0.320637465 0.394879699
v 0.909632027 -0.415414989 0 0.381928563 0.630628705 0.26823175
v 0.78776443 -0.415414989 -0.454816014 0.861792564 0.575478077 0.654279947
v 0.454815984 -0.415414989 -0.78776449 0.854431152 0.000996947289 0.66387558
v -3.97612787e-08 -0.415414989 -0.909632027 0.678393602 0.077708602 0.0121474266
v -0.454816073 -0.415414989 -0.78776443 0.75284481 0.405657053 0.472901225
v -0.78776443 -0.415414989 -0.454816073 0.51347065 0.394879699 0.748691797
v -0.909632027 -0.415414989 -1.37350611e-07 0.320637465 0.26823175 0.810054541
v -0.787764549 -0.415414989 0.454815835 0.630628705 0.654279947 0.505757093
v -0.454816282 -0.415414989 0.787764251 0.575478077 0.66387558 0.714000344
v -4.2289912e-07 -0.415414989 0.909632027 0.000996947289 0.0121474266 0.344794512
v 0.454815567 -0.415414989 0.787764728 0.077708602 0.472901225 0.981384993
v 0.787764132 -0.415414989 0.45481655 0.405657053 0.748691797 0.530059934
v 0.755749583 -0.654860735 0 0.394879699 0.810054541 0.743237019
v 0.654498339 -0.654860735 -0.377874792 0.26823175 0.505757093 0.284767151
v 0.377874762 -0.654860735 -0.654498398 0.654279947 0.714000344 0.300669074
v -3.3034862e-08 -0.654860735 -0.755749583 0.66387558 0.344794512 0.0183531046
v -0.377874851 -0.654860735 -0.654498339 0.0121474266 0.981384993 0.709834099
v -0.654498339 -0.654860735 -0.377874851 0.472901225 0.530059934 0.116442204
v -0.755749583 -0.654860735 -1.14115018e-07 0.748691797 0.743237019 0.948946834
v -0.654498398 -0.654860735 0.377874643 0.810054541 0.284767151 0.236651063
v -0.37787503 -0.654860735 0.654498219 0.505757093 0.300669074 0.818700075
v -3.51357272e-07 -0.654860735 0.755749583 0.714000344 0.0183531046 0.555869818
v 0.377874404 -0.654860735 0.654498577 0.344794512 0.709834099 0.784917355
v 0.6544981 -0.654860735 0.377875239 0.981384993 0.116442204 0.96960032
v 0.540640831 -0.841253519 0 0.530059934 0.948946834 0.885750532
v 0.4682087 -0.841253519 -0.270320415 0.743237019 0.236651063 0.0675030947
v 0.270320386 -0.841253519 -0.46820873 0.284767151 0.818700075 0.380973458
v -2.36321611e-08 -0.841253519 -0.540640831 0.300669074 0.555869818 0.845166206
v -0.270320445 -0.841253519 -0.4682087 0.0183531046 0.784917355 0.902132392
v -0.4682087 -0.841253519 -0.270320445 0.709834099 0.96960032 0.333115458
v -0.540640831 -0.841253519 -8.16344965e-08 0.116442204 0.885750532 0.463308811
v -0.46820876 -0.841253519 0.270320296 0.948946834 0.0675030947 0.502813458
v -0.270320565 -0.841253519 0.468208581 0.236651063 0.380973458 0.718640089
v -2.51350571e-07 -0.841253519 0.540640831 0.818700075 0.845166206 0.113067865
v 0.270320147 -0.841253519 0.468208849 0.555869818 0.902132392 0.502267003
v 0.468208522 -0.841253519 0.270320743 0.784917355 0.333115458 0.342397571
v 0.281732529 -0.959492981 0 0.96960032 0.463308811 0.849775791
v 0.24398753 -0.959492981 -0.140866265 0.885750532 0.502813458 0.736240864
v 0.14086625 -0.959492981 -0.243987545 0.0675030947 0.718640089 0.26461339
v -1.23149198e-08 -0.959492981 -0.281732529 0.380973458 0.113067865 0.585356593
v -0.14086628 -0.959492981 -0.24398753 0.845166206 0.502267003 0.796538234
v -0.24398753 -0.959492981 -0.14086628 0.902132392 0.342397571 0.473572612
v -0.281732529 -0.959492981 -4.25404281e-08 0.333115458 0.849775791 0.36242485
v -0.24398756 -0.959492981 0.140866205 0.463308811 0.736240864 0.526671529
v -0.140866354 -0.959492981 0.243987471 0.502813458 0.26461339 0.982193828
v -1.30980922e-07 -0.959492981 0.281732529 0.718640089 0.585356593 0.253068328
v 0.140866116 -0.959492981 0.243987605 0.113067865 0.796538234 0.962135553
v 0.243987441 -0.959492981 0.140866429 0.502267003 0.473572612 0.482439637
vt 0.172926173 0.172926188 0
vt 0.237390578 0.172926188 0
vt 0.228753999 0.205158383 0
vt 0.205158383 0.228753999 0
vt 0.172926188 0.237390578 0
vt 0.140693992 0.228753999 0
vt 0.117098384 0.205158383 0
vt 0.108461805 0.172926202 0
vt 0.117098384 0.140694007 0
vt 0.140693977 0.117098413 0
vt 0.172926158 0.108461805 0
vt 0.205158353 0.117098376 0
vt 0.228753969 0.140693963 0
vt 0.296632469 0.172926188 0
vt 0.28005895 0.234779328 0
vt 0.234779328 0.28005895 0
vt 0.172926188 0.296632469 0
vt 0.111073054 0.28005895 0
vt 0.0657934174 0.234779328 0
vt 0.049219925 0.172926202 0
vt 0.0657934025 0.111073084 0
vt 0.111073025 0.0657934472 0
vt 0.172926143 0.049219925 0
vt 0.234779269 0.0657933876 0
vt 0.28005892 0.11107298 0
vt 0.345852375 0.172926188 0
vt 0.322684675 0.259389281 0
vt 0.259389281 0.322684705 0
vt 0.172926173 0.345852375 0
vt 0.0864630789 0.322684675 0
vt 0.0231677163 0.259389311 0
vt 0 0.172926217 0
vt 0.0231677033 0.086463131 0
vt 0.0864630416 0.0231677443 0
vt 0.172926113 0 0
vt 0.259389192 0.0231676623 0
vt 0.322684616 0.0864629894 0
vt 0.113242708 0.663795888 0
vt 0.113242708 0.609007299 0
vt 0.21731104 0.609007299 0
vt 0.199705809 0.663795888 0
vt 0.293494344 0.609007299 0
vt 0.263001204 0.663795888 0
vt 0.473791838 0.663795888 0
vt 0.456186622 0.609007299 0
vt 0.560254931 0.609007299 0
vt 0.560254931 0.663795888 0
vt 0.66432333 0.609007299 0
vt 0.646718085 0.663795888 0
vt 0.740506589 0.609007299 0
vt 0.710013449 0.663795888 0
vt 0.354424655 0.981739461 0
vt 0.33681941 0.926950753 0
vt 0.440887749 0.926950753 0
vt 0.440887749 0.981739461 0
vt 0.544956088 0.926950753 0
vt 0.527350843 0.981739461 0
vt 0.621139348 0.926950753 0
vt 0.590646207 0.981739461 0
vt 0.0267794877 0.981739461 0
vt 0.00917424913 0.926950753 0
vt 0.113242544 0.926950753 0
vt 0.113242559 0.981739461 0
vt 0.217310876 0.926950753 0
vt 0.199705645 0.981739461 0
vt 0.293494225 0.926950753 0
vt 0.263001055 0.981739461 0
vt 0.0267795082 0.663795888 0
vt 0.00917425565 0.609007299 0
vt 0.113242708 0.546518147 0
vt 0.226485282 0.546518147 0
vt 0.380003333 0.609007299 0
vt 0.364113063 0.546518147 0
vt 0.447012365 0.546518147 0
vt 0.560254931 0.546518147 0
vt 0.673497498 0.546518147 0
vt 0.75639689 0.546518147 0
vt 0.327645183 0.86446166 0
vt 0.440887749 0.86446166 0
vt 0.554130256 0.86446166 0
vt 0.637029648 0.86446166 0
vt 0 0.86446166 0
vt 0.113242537 0.86446166 0
vt 0.226485088 0.86446166 0
vt 0.309384465 0.86446166 0
vt 0 0.546518147 0
vt 0.113242708 0.481390834 0
vt 0.226485282 0.481390834 0
vt 0.364113063 0.481390834 0
vt 0.447012365 0.481390834 0
vt 0.560254931 0.481390834 0
vt 0.673497498 0.481390834 0
vt 0.75639689 0.481390834 0
vt 0.327645183 0.799334347 0
vt 0.440887749 0.799334347 0
vt 0.554130256 0.799334347 0
vt 0.637029648 0.799334347 0
vt 0 0.799334347 0
vt 0.113242537 0.799334347 0
vt 0.226485088 0.799334347 0
vt 0.309384465 0.799334347 0
vt 0 0.481390834 0
vt 0.113242708 0.418901652 0
vt 0.21731104 0.418901652 0
vt 0.293494344 0.418901652 0
vt 0.309384584 0.481390834 0
vt 0.456186622 0.418901652 0
vt 0.560254931 0.418901652 0
vt 0.66432333 0.418901652 0
vt 0.740506589 0.418901652 0
vt 0.33681941 0.736845136 0
vt 0.440887749 0.736845136 0
vt 0.544956088 0.736845136 0
vt 0.621139348 0.736845136 0
vt 0.00917424168 0.736845136 0
vt 0.113242544 0.736845136 0
vt 0.217310876 0.736845136 0
vt 0.293494225 0.736845136 0
vt 0.00917424913 0.418901652 0
vt 0.113242708 0.364113092 0
vt 0.199705809 0.364113092 0
vt 0.380003303 0.418901652 0
vt 0.410496473 0.364113092 0
vt 0.473791838 0.364113092 0
vt 0.560254931 0.364113092 0
vt 0.646718085 0.364113092 0
vt 0.710013449 0.364113092 0
vt 0.354424655 0.682056606 0
vt 0.440887749 0.682056606 0
vt 0.527350843 0.682056606 0
vt 0.590646207 0.682056606 0
vt 0.0267794877 0.682056606 0
vt 0.113242559 0.682056606 0
vt 0.199705645 0.682056606 0
vt 0.263001055 0.682056606 0
vt 0.0267795082 0.364113092 0
vt 0.709965467 0.172926188 0
vt 0.660745502 0.172926188 0
vt 0.644172072 0.111073054 0
vt 0.686797738 0.0864630938 0
vt 0.598892391 0.0657934099 0
vt 0.623502374 0.0231677033 0
vt 0.53703928 0.049219925 0
vt 0.53703928 0 0
vt 0.47518611 0.0657934174 0
vt 0.450576156 0.0231677163 0
vt 0.429906487 0.111073054 0
vt 0.387280792 0.0864630789 0
vt 0.413332999 0.172926173 0
vt 0.364113063 0.172926158 0
vt 0.429906458 0.234779298 0
vt 0.387280792 0.259389251 0
vt 0.47518605 0.28005892 0
vt 0.450576097 0.322684646 0
vt 0.53703922 0.296632469 0
vt 0.53703922 0.345852375 0
vt 0.598892331 0.28005901 0
vt 0.623502254 0.322684705 0
vt 0.644172013 0.234779403 0
vt 0.686797678 0.259389371 0
vt 0.60150367 0.172926188 0
vt 0.592867076 0.140693992 0
vt 0.569271445 0.117098384 0
vt 0.53703928 0.108461805 0
vt 0.504807055 0.117098384 0
vt 0.481211454 0.140693992 0
vt 0.47257486 0.172926173 0
vt 0.481211454 0.205158368 0
vt 0.504807055 0.228753969 0
vt 0.53703922 0.237390578 0
vt 0.569271386 0.228754014 0
vt 0.592867076 0.205158412 0
vt 0.53703928 0.172926188 0
vn -2.05951132e-08 1 -6.05738626e-10
vn 0.303252876 0.952910066 5.81079647e-08
vn 0.262624681 0.952910066 -0.151626438
vn -2.05951132e-08 1 -6.05738626e-10
vn 0.262624681 0.952910066 -0.151626438
vn 0.151626423 0.952910066 -0.262624711
vn -2.05951132e-08 1 -6.05738626e-10
vn 0.151626423 0.952910066 -0.262624711
vn -1.21058266e-08 0.952910066 -0.303252876
vn -2.05951132e-08 1 -6.05738626e-10
vn -1.21058266e-08 0.952910066 -0.303252876
vn -0.151626438 0.952910066 -0.262624681
vn -2.05951132e-08 1 -6.05738626e-10
vn -0.151626438 0.952910066 -0.262624681
vn -0.262624681 0.952910066 -0.151626468
vn -2.05951132e-08 1 -6.05738626e-10
vn -0.262624681 0.952910066 -0.151626468
vn -0.303252876 0.952910066 -3.87386443e-08
vn -2.05951132e-08 1 -6.05738626e-10
vn -0.303252876 0.952910066 -3.87386443e-08
vn -0.26262477 0.952910066 0.151626423
vn -2.05951132e-08 1 -6.05738626e-10
vn -0.26262477 0.952910066 0.151626423
vn -0.151626557 0.952910066 0.262624681
vn -2.05951132e-08 1 -6.05738626e-10
vn -0.151626557 0.952910066 0.262624681
vn -1.42848748e-07 0.952910066 0.303252876
vn -2.05951132e-08 1 -6.05738626e-10
vn -1.42848748e-07 0.952910066 0.303252876
vn 0.151626289 0.952910125 0.2626248
vn -2.05951132e-08 1 -6.05738626e-10
vn 0.151626289 0.952910125 0.2626248
vn 0.262624592 0.952910066 0.151626542
vn -2.05951132e-08 1 -6.05738626e-10
vn 0.262624592 0.952910066 0.151626542
vn 0.303252876 0.952910066 5.81079647e-08
vn 0.303252876 0.952910066 5.81079647e-08
vn 0.55695051 0.830545664 9.81828379e-08
vn 0.482333213 0.830545664 -0.278475225
vn 0.262624681 0.952910066 -0.151626438
vn 0.262624681 0.952910066 -0.151626438
vn 0.482333213 0.830545664 -0.278475225
vn 0.278475165 0.830545664 -0.482333213
vn 0.151626423 0.952910066 -0.262624711
vn 0.151626423 0.952910066 -0.262624711
vn 0.278475165 0.830545664 -0.482333213
vn -2.45457077e-08 0.830545664 -0.55695045
vn -1.21058266e-08 0.952910066 -0.303252876
vn -1.21058266e-08 0.952910066 -0.303252876
vn -2.45457077e-08 0.830545664 -0.55695045
vn -0.278475165 0.830545664 -0.482333183
vn -0.151626438 0.952910066 -0.262624681
vn -0.151626438 0.952910066 -0.262624681
vn -0.278475165 0.830545664 -0.482333183
vn -0.482333213 0.830545664 -0.278475225
vn -0.262624681 0.952910066 -0.151626468
vn -0.262624681 0.952910066 -0.151626468
vn -0.482333213 0.830545664 -0.278475225
vn -0.55695045 0.830545664 -7.36371248e-08
vn -0.303252876 0.952910066 -3.87386443e-08
vn -0.303252876 0.952910066 -3.87386443e-08
vn -0.55695045 0.830545664 -7.36371248e-08
vn -0.482333332 0.830545664 0.278475165
vn -0.26262477 0.952910066 0.151626423
vn -0.26262477 0.952910066 0.151626423
vn -0.482333332 0.830545664 0.278475165
vn -0.278475374 0.830545664 0.482333124
vn -0.151626557 0.952910066 0.262624681
vn -0.151626557 0.952910066 0.262624681
vn -0.278475374 0.830545664 0.482333124
vn -2.7491194e-07 0.830545664 0.55695045
vn -1.42848748e-07 0.952910066 0.303252876
vn -1.42848748e-07 0.952910066 0.303252876
vn -2.7491194e-07 0.830545664 0.55695045
vn 0.278474957 0.830545783 0.482333392
vn 0.151626289 0.952910125 0.2626248
vn 0.151626289 0.952910125 0.2626248
vn 0.278474957 0.830545783 0.482333392
vn 0.482333124 0.830545664 0.278475463
vn 0.262624592 0.952910066 0.151626542
vn 0.262624592 0.952910066 0.151626542
vn 0.482333124 0.830545664 0.278475463
vn 0.55695051 0.830545664 9.81828379e-08
vn 0.303252876 0.952910066 5.81079647e-08
vn 0.55695051 0.830545664 9.81828379e-08
vn 0.765508354 0.643425941 1.09562841e-07
vn 0.662949681 0.643426001 -0.382754177
vn 0.482333213 0.830545664 -0.278475225
vn 0.482333213 0.830545664 -0.278475225
vn 0.662949681 0.643426001 -0.382754177
vn 0.382754117 0.643425941 -0.662949741
vn 0.278475165 0.830545664 -0.482333213
vn 0.278475165 0.830545664 -0.482333213
vn 0.382754117 0.643425941 -0.662949741
vn -3.48608964e-08 0.643425941 -0.765508294
vn -2.45457077e-08 0.830545664 -0.55695045
vn -2.45457077e-08 0.830545664 -0.55695045
vn -3.48608964e-08 0.643425941 -0.765508294
vn -0.382754177 0.643425941 -0.662949741
vn -0.278475165 0.830545664 -0.482333183
vn -0.278475165 0.830545664 -0.482333183
vn -0.382754177 0.643425941 -0.662949741
vn -0.662949741 0.643425941 -0.382754207
vn -0.482333213 0.830545664 -0.278475225
vn -0.482333213 0.830545664 -0.278475225
vn -0.662949741 0.643425941 -0.382754207
vn -0.765508294 0.643425941 -5.97615397e-08
vn -0.55695045 0.830545664 -7.36371248e-08
vn -0.55695045 0.830545664 -7.36371248e-08
vn -0.765508294 0.643425941 -5.97615397e-08
vn -0.662949741 0.643425941 0.382753938
vn -0.482333332 0.830545664 0.278475165
vn -0.482333332 0.830545664 0.278475165
vn -0.662949741 0.643425941 0.382753938
vn -0.382754445 0.643426001 0.662949562
vn -0.278475374 0.830545664 0.482333124
vn -0.278475374 0.830545664 0.482333124
vn -0.382754445 0.643426001 0.662949562
vn -3.63549418e-07 0.643426001 0.765508354
vn -2.7491194e-07 0.830545664 0.55695045
vn -2.7491194e-07 0.830545664 0.55695045
vn -3.63549418e-07 0.643426001 0.765508354
vn 0.3827537 0.643425941 0.6629498
vn 0.278474957 0.830545783 0.482333392
vn 0.278474957 0.830545783 0.482333392
vn 0.3827537 0.643425941 0.6629498
vn 0.662949443 0.643426001 0.382754475
vn 0.482333124 0.830545664 0.278475463
vn 0.482333124 0.830545664 0.278475463
vn 0.662949443 0.643426001 0.382754475
vn 0.765508354 0.643425941 1.09562841e-07
vn 0.55695051 0.830545664 9.81828379e-08
vn 0.765508354 0.643425941 1.09562841e-07
vn 0.913521945 0.406789392 9.57422728e-08
vn 0.791133285 0.406789452 -0.456761032
vn 0.662949681 0.643426001 -0.382754177
vn 0.662949681 0.643426001 -0.382754177
vn 0.791133285 0.406789452 -0.456761032
vn 0.456760973 0.406789392 -0.791133285
vn 0.382754117 0.643425941 -0.662949741
vn 0.382754117 0.643425941 -0.662949741
vn 0.456760973 0.406789392 -0.791133285
vn -3.52734659e-08 0.406789392 -0.913521945
vn -3.48608964e-08 0.643425941 -0.765508294
vn -3.48608964e-08 0.643425941 -0.765508294
vn -3.52734659e-08 0.406789392 -0.913521945
vn -0.456760973 0.406789452 -0.791133225
vn -0.382754177 0.643425941 -0.662949741
vn -0.382754177 0.643425941 -0.662949741
vn -0.456760973 0.406789452 -0.791133225
vn -0.791133225 0.406789452 -0.456761062
vn -0.662949741 0.643425941 -0.382754207
vn -0.662949741 0.643425941 -0.382754207
vn -0.791133225 0.406789452 -0.456761062
vn -0.913521945 0.406789392 -1.1085946e-07
vn -0.765508294 0.643425941 -5.97615397e-08
vn -0.765508294 0.643425941 -5.97615397e-08
vn -0.913521945 0.406789392 -1.1085946e-07
vn -0.791133344 0.406789392 0.456760824
vn -0.662949741 0.643425941 0.382753938
vn -0.662949741 0.643425941 0.382753938
vn -0.791133344 0.406789392 0.456760824
vn -0.456761271 0.406789422 0.791133106
vn -0.382754445 0.643426001 0.662949562
vn -0.382754445 0.643426001 0.662949562
vn -0.456761271 0.406789422 0.791133106
vn -4.73672287e-07 0.406789392 0.913522065
vn -3.63549418e-07 0.643426001 0.765508354
vn -3.63549418e-07 0.643426001 0.765508354
vn -4.73672287e-07 0.406789392 0.913522065
vn 0.456760496 0.406789392 0.791133523
vn 0.3827537 0.643425941 0.6629498
vn 0.3827537 0.643425941 0.6629498
vn 0.456760496 0.406789392 0.791133523
vn 0.791133046 0.406789452 0.45676133
vn 0.662949443 0.643426001 0.382754475
vn 0.662949443 0.643426001 0.382754475
vn 0.791133046 0.406789452 0.45676133
vn 0.913521945 0.406789392 9.57422728e-08
vn 0.765508354 0.643425941 1.09562841e-07
vn 0.913521945 0.406789392 9.57422728e-08
vn 0.990275681 0.139118984 1.16664296e-07
vn 0.857603908 0.139119029 -0.495137841
vn 0.791133285 0.406789452 -0.456761032
vn 0.791133285 0.406789452 -0.456761032
vn 0.857603908 0.139119029 -0.495137841
vn 0.495137811 0.139119014 -0.857603908
vn 0.456760973 0.406789392 -0.791133285
vn 0.456760973 0.406789392 -0.791133285
vn 0.495137811 0.139119014 -0.857603908
vn -5.57959581e-08 0.139118984 -0.990275681
vn -3.52734659e-08 0.406789392 -0.913521945
vn -3.52734659e-08 0.406789392 -0.913521945
vn -5.57959581e-08 0.139118984 -0.990275681
vn -0.495137841 0.139119044 -0.857603908
vn -0.456760973 0.406789452 -0.791133225
vn -0.456760973 0.406789452 -0.791133225
vn -0.495137841 0.139119044 -0.857603908
vn -0.857603908 0.139119014 -0.495137841
vn -0.791133225 0.406789452 -0.456761062
vn -0.791133225 0.406789452 -0.456761062
vn -0.857603908 0.139119014 -0.495137841
vn -0.990275681 0.139118984 -1.16664289e-07
vn -0.913521945 0.406789392 -1.1085946e-07
vn -0.913521945 0.406789392 -1.1085946e-07
vn -0.990275681 0.139118984 -1.16664289e-07
vn -0.857604027 0.139118999 0.495137632
vn -0.791133344 0.406789392 0.456760824
vn -0.791133344 0.406789392 0.456760824
vn -0.857604027 0.139118999 0.495137632
vn -0.495138139 0.139119044 0.857603788
vn -0.456761271 0.406789422 0.791133106
vn -0.456761271 0.406789422 0.791133106
vn -0.495138139 0.139119044 0.857603788
vn -4.61584762e-07 0.139118969 0.990275681
vn -4.73672287e-07 0.406789392 0.913522065
vn -4.73672287e-07 0.406789392 0.913522065
vn -4.61584762e-07 0.139118969 0.990275681
vn 0.495137304 0.139118984 0.857604265
vn 0.456760496 0.406789392 0.791133523
vn 0.456760496 0.406789392 0.791133523
vn 0.495137304 0.139118984 0.857604265
vn 0.857603669 0.139118984 0.495138258
vn 0.791133046 0.406789452 0.45676133
vn 0.791133046 0.406789452 0.45676133
vn 0.857603669 0.139118984 0.495138258
vn 0.990275681 0.139118984 1.16664296e-07
vn 0.913521945 0.406789392 9.57422728e-08
vn 0.990275681 0.139118984 1.16664296e-07
vn 0.990275681 -0.13911888 1.1159193e-07
vn 0.857603908 -0.13911891 -0.495137841
vn 0.857603908 0.139119029 -0.495137841
vn 0.857603908 0.139119029 -0.495137841
vn 0.857603908 -0.13911891 -0.495137841
vn 0.495137811 -0.13911891 -0.857604027
vn 0.495137811 0.139119014 -0.857603908
vn 0.495137811 0.139119014 -0.857603908
vn 0.495137811 -0.13911891 -0.857604027
vn -5.57959581e-08 -0.13911888 -0.990275681
vn -5.57959581e-08 0.139118984 -0.990275681
vn -5.57959581e-08 0.139118984 -0.990275681
vn -5.57959581e-08 -0.13911888 -0.990275681
vn -0.495137841 -0.139118925 -0.857603908
vn -0.495137841 0.139119044 -0.857603908
vn -0.495137841 0.139119044 -0.857603908
vn -0.495137841 -0.139118925 -0.857603908
vn -0.857603908 -0.139118925 -0.49513787
vn -0.857603908 0.139119014 -0.495137841
vn -0.857603908 0.139119014 -0.495137841
vn -0.857603908 -0.139118925 -0.49513787
vn -0.990275681 -0.13911888 -1.21736633e-07
vn -0.990275681 0.139118984 -1.16664289e-07
vn -0.990275681 0.139118984 -1.16664289e-07
vn -0.990275681 -0.13911888 -1.21736633e-07
vn -0.857604027 -0.139118895 0.495137691
vn -0.857604027 0.139118999 0.495137632
vn -0.857604027 0.139118999 0.495137632
vn -0.857604027 -0.139118895 0.495137691
vn -0.495138139 -0.139118925 0.857603788
vn -0.495138139 0.139119044 0.857603788
vn -0.495138139 0.139119044 0.857603788
vn -0.495138139 -0.139118925 0.857603788
vn -4.61584705e-07 -0.13911885 0.990275681
vn -4.61584762e-07 0.139118969 0.990275681
vn -4.61584762e-07 0.139118969 0.990275681
vn -4.61584705e-07 -0.13911885 0.990275681
vn 0.495137274 -0.13911885 0.857604206
vn 0.495137304 0.139118984 0.857604265
vn 0.495137304 0.139118984 0.857604265
vn 0.495137274 -0.13911885 0.857604206
vn 0.857603669 -0.139118955 0.495138198
vn 0.857603669 0.139118984 0.495138258
vn 0.857603669 0.139118984 0.495138258
vn 0.857603669 -0.139118955 0.495138198
vn 0.990275681 -0.13911888 1.1159193e-07
vn 0.990275681 0.139118984 1.16664296e-07
vn 0.990275681 -0.13911888 1.1159193e-07
vn 0.913521945 -0.406789273 1.61250142e-07
vn 0.791133285 -0.406789362 -0.456760973
vn 0.857603908 -0.13911891 -0.495137841
vn 0.857603908 -0.13911891 -0.495137841
vn 0.791133285 -0.406789362 -0.456760973
vn 0.456761032 -0.406789362 -0.791133285
vn 0.495137811 -0.13911891 -0.857604027
vn 0.495137811 -0.13911891 -0.857604027
vn 0.456761032 -0.406789362 -0.791133285
vn -2.51953338e-08 -0.406789362 -0.913522065
vn -5.57959581e-08 -0.13911888 -0.990275681
vn -5.57959581e-08 -0.13911888 -0.990275681
vn -2.51953338e-08 -0.406789362 -0.913522065
vn -0.456761032 -0.406789392 -0.791133285
vn -0.495137841 -0.139118925 -0.857603908
vn -0.495137841 -0.139118925 -0.857603908
vn -0.456761032 -0.406789392 -0.791133285
vn -0.791133225 -0.406789392 -0.456761032
vn -0.857603908 -0.139118925 -0.49513787
vn -0.857603908 -0.139118925 -0.49513787
vn -0.791133225 -0.406789392 -0.456761032
vn -0.913522065 -0.406789392 -1.10859474e-07
vn -0.990275681 -0.13911888 -1.21736633e-07
vn -0.990275681 -0.13911888 -1.21736633e-07
vn -0.913522065 -0.406789392 -1.10859474e-07
vn -0.791133344 -0.406789392 0.456760854
vn -0.857604027 -0.139118895 0.495137691
vn -0.857604027 -0.139118895 0.495137691
vn -0.791133344 -0.406789392 0.456760854
vn -0.456761301 -0.406789362 0.791133106
vn -0.495138139 -0.139118925 0.857603788
vn -0.495138139 -0.139118925 0.857603788
vn -0.456761301 -0.406789362 0.791133106
vn -4.78711343e-07 -0.406789392 0.913522065
vn -4.61584705e-07 -0.13911885 0.990275681
vn -4.61584705e-07 -0.13911885 0.990275681
vn -4.78711343e-07 -0.406789392 0.913522065
vn 0.456760526 -0.406789362 0.791133523
vn 0.495137274 -0.13911885 0.857604206
vn 0.495137274 -0.13911885 0.857604206
vn 0.456760526 -0.406789362 0.791133523
vn 0.791133046 -0.406789392 0.45676133
vn 0.857603669 -0.139118955 0.495138198
vn 0.857603669 -0.139118955 0.495138198
vn 0.791133046 -0.406789392 0.45676133
vn 0.913521945 -0.406789273 1.61250142e-07
vn 0.990275681 -0.13911888 1.1159193e-07
vn 0.913521945 -0.406789273 1.61250142e-07
vn 0.765508354 -0.643426001 1.12052909e-07
vn 0.662949622 -0.643426001 -0.382754117
vn 0.791133285 -0.406789362 -0.456760973
vn 0.791133285 -0.406789362 -0.456760973
vn 0.662949622 -0.643426001 -0.382754117
vn 0.382754087 -0.643426001 -0.662949681
vn 0.456761032 -0.406789362 -0.791133285
vn 0.456761032 -0.406789362 -0.791133285
vn 0.382754087 -0.643426001 -0.662949681
vn -4.98012867e-08 -0.643426001 -0.765508235
vn -2.51953338e-08 -0.406789362 -0.913522065
vn -2.51953338e-08 -0.406789362 -0.913522065
vn -4.98012867e-08 -0.643426001 -0.765508235
vn -0.382754177 -0.643426001 -0.662949681
vn -0.456761032 -0.406789392 -0.791133285
vn -0.456761032 -0.406789392 -0.791133285
vn -0.382754177 -0.643426001 -0.662949681
vn -0.662949622 -0.643426061 -0.382754177
vn -0.791133225 -0.406789392 -0.456761032
vn -0.791133225 -0.406789392 -0.456761032
vn -0.662949622 -0.643426061 -0.382754177
vn -0.765508294 -0.643425941 -7.71919915e-08
vn -0.913522065 -0.406789392 -1.10859474e-07
vn -0.913522065 -0.406789392 -1.10859474e-07
vn -0.765508294 -0.643425941 -7.71919915e-08
vn -0.662949681 -0.643426001 0.382753938
vn -0.791133344 -0.406789392 0.456760854
vn -0.791133344 -0.406789392 0.456760854
vn -0.662949681 -0.643426001 0.382753938
vn -0.382754445 -0.643426001 0.662949562
vn -0.456761301 -0.406789362 0.791133106
vn -0.456761301 -0.406789362 0.791133106
vn -0.382754445 -0.643426001 0.662949562
vn -3.66039444e-07 -0.643425941 0.765508294
vn -4.78711343e-07 -0.406789392 0.913522065
vn -4.78711343e-07 -0.406789392 0.913522065
vn -3.66039444e-07 -0.643425941 0.765508294
vn 0.3827537 -0.643425941 0.6629498
vn 0.456760526 -0.406789362 0.791133523
vn 0.456760526 -0.406789362 0.791133523
vn 0.3827537 -0.643425941 0.6629498
vn 0.662949443 -0.643426001 0.382754475
vn 0.791133046 -0.406789392 0.45676133
vn 0.791133046 -0.406789392 0.45676133
vn 0.662949443 -0.643426001 0.382754475
vn 0.765508354 -0.643426001 1.12052909e-07
vn 0.913521945 -0.406789273 1.61250142e-07
vn 0.765508354 -0.643426001 1.12052909e-07
vn 0.55695045 -0.830545664 1.00637401e-07
vn 0.482333243 -0.830545664 -0.278475225
vn 0.662949622 -0.643426001 -0.382754117
vn 0.662949622 -0.643426001 -0.382754117
vn 0.482333243 -0.830545664 -0.278475225
vn 0.278475165 -0.830545664 -0.482333243
vn 0.382754087 -0.643426001 -0.662949681
vn 0.382754087 -0.643426001 -0.662949681
vn 0.278475165 -0.830545664 -0.482333243
vn -2.45457077e-08 -0.830545664 -0.55695045
vn -4.98012867e-08 -0.643426001 -0.765508235
vn -4.98012867e-08 -0.643426001 -0.765508235
vn -2.45457077e-08 -0.830545664 -0.55695045
vn -0.278475195 -0.830545664 -0.482333213
vn -0.382754177 -0.643426001 -0.662949681
vn -0.382754177 -0.643426001 -0.662949681
vn -0.278475195 -0.830545664 -0.482333213
vn -0.482333183 -0.830545783 -0.278475225
vn -0.662949622 -0.643426061 -0.382754177
vn -0.662949622 -0.643426061 -0.382754177
vn -0.482333183 -0.830545783 -0.278475225
vn -0.55695045 -0.830545664 -7.36371177e-08
vn -0.765508294 -0.643425941 -7.71919915e-08
vn -0.765508294 -0.643425941 -7.71919915e-08
vn -0.55695045 -0.830545664 -7.36371177e-08
vn -0.482333332 -0.830545664 0.278475136
vn -0.662949681 -0.643426001 0.382753938
vn -0.662949681 -0.643426001 0.382753938
vn -0.482333332 -0.830545664 0.278475136
vn -0.278475374 -0.830545783 0.482333094
vn -0.382754445 -0.643426001 0.662949562
vn -0.382754445 -0.643426001 0.662949562
vn -0.278475374 -0.830545783 0.482333094
vn -2.77366496e-07 -0.830545664 0.55695045
vn -3.66039444e-07 -0.643425941 0.765508294
vn -3.66039444e-07 -0.643425941 0.765508294
vn -2.77366496e-07 -0.830545664 0.55695045
vn 0.278474957 -0.830545783 0.482333392
vn 0.3827537 -0.643425941 0.6629498
vn 0.3827537 -0.643425941 0.6629498
vn 0.278474957 -0.830545783 0.482333392
vn 0.482333124 -0.830545664 0.278475434
vn 0.662949443 -0.643426001 0.382754475
vn 0.662949443 -0.643426001 0.382754475
vn 0.482333124 -0.830545664 0.278475434
vn 0.55695045 -0.830545664 1.00637401e-07
vn 0.765508354 -0.643426001 1.12052909e-07
vn 0.55695045 -0.830545664 1.00637401e-07
vn 0.303252846 -0.952910066 5.75026711e-08
vn 0.262624651 -0.952910066 -0.151626423
vn 0.482333243 -0.830545664 -0.278475225
vn 0.482333243 -0.830545664 -0.278475225
vn 0.262624651 -0.952910066 -0.151626423
vn 0.151626423 -0.952910066 -0.262624711
vn 0.278475165 -0.830545664 -0.482333243
vn 0.278475165 -0.830545664 -0.482333243
vn 0.151626423 -0.952910066 -0.262624711
vn -1.21058266e-08 -0.952910066 -0.303252876
vn -2.45457077e-08 -0.830545664 -0.55695045
vn -2.45457077e-08 -0.830545664 -0.55695045
vn -1.21058266e-08 -0.952910066 -0.303252876
vn -0.151626453 -0.952910066 -0.262624741
vn -0.278475195 -0.830545664 -0.482333213
vn -0.278475195 -0.830545664 -0.482333213
vn -0.151626453 -0.952910066 -0.262624741
vn -0.262624711 -0.952910066 -0.151626468
vn -0.482333183 -0.830545783 -0.278475225
vn -0.482333183 -0.830545783 -0.278475225
vn -0.262624711 -0.952910066 -0.151626468
vn -0.303252906 -0.952910066 -4.05545215e-08
vn -0.55695045 -0.830545664 -7.36371177e-08
vn -0.55695045 -0.830545664 -7.36371177e-08
vn -0.303252906 -0.952910066 -4.05545215e-08
vn -0.26262477 -0.952910066 0.151626408
vn -0.482333332 -0.830545664 0.278475136
vn -0.482333332 -0.830545664 0.278475136
vn -0.26262477 -0.952910066 0.151626408
vn -0.151626557 -0.952910066 0.262624681
vn -0.278475374 -0.830545783 0.482333094
vn -0.278475374 -0.830545783 0.482333094
vn -0.151626557 -0.952910066 0.262624681
vn -1.43454059e-07 -0.952910066 0.303252906
vn -2.77366496e-07 -0.830545664 0.55695045
vn -2.77366496e-07 -0.830545664 0.55695045
vn -1.43454059e-07 -0.952910066 0.303252906
vn 0.151626289 -0.952910125 0.2626248
vn 0.278474957 -0.830545783 0.482333392
vn 0.278474957 -0.830545783 0.482333392
vn 0.151626289 -0.952910125 0.2626248
vn 0.262624592 -0.952910066 0.151626542
vn 0.482333124 -0.830545664 0.278475434
vn 0.482333124 -0.830545664 0.278475434
vn 0.262624592 -0.952910066 0.151626542
vn 0.303252846 -0.952910066 5.75026711e-08
vn 0.55695045 -0.830545664 1.00637401e-07
vn 0.303252846 -0.952910066 5.75026711e-08
vn -2.05951132e-08 -1 -3.02869307e-09
vn 0.262624651 -0.952910066 -0.151626423
vn 0.262624651 -0.952910066 -0.151626423
vn -2.05951132e-08 -1 -3.02869307e-09
vn 0.151626423 -0.952910066 -0.262624711
vn 0.151626423 -0.952910066 -0.262624711
vn -2.05951132e-08 -1 -3.02869307e-09
vn -1.21058266e-08 -0.952910066 -0.303252876
vn -1.21058266e-08 -0.952910066 -0.303252876
vn -2.05951132e-08 -1 -3.02869307e-09
vn -0.151626453 -0.952910066 -0.262624741
vn -0.151626453 -0.952910066 -0.262624741
vn -2.05951132e-08 -1 -3.02869307e-09
vn -0.262624711 -0.952910066 -0.151626468
vn -0.262624711 -0.952910066 -0.151626468
vn -2.05951132e-08 -1 -3.02869307e-09
vn -0.303252906 -0.952910066 -4.05545215e-08
vn -0.303252906 -0.952910066 -4.05545215e-08
vn -2.05951132e-08 -1 -3.02869307e-09
vn -0.26262477 -0.952910066 0.151626408
vn -0.26262477 -0.952910066 0.151626408
vn -2.05951132e-08 -1 -3.02869307e-09
vn -0.151626557 -0.952910066 0.262624681
vn -0.151626557 -0.952910066 0.262624681
vn -2.05951132e-08 -1 -3.02869307e-09
vn -1.43454059e-07 -0.952910066 0.303252906
vn -1.43454059e-07 -0.952910066 0.303252906
vn -2.05951132e-08 -1 -3.02869307e-09
vn 0.151626289 -0.952910125 0.2626248
vn 0.151626289 -0.952910125 0.2626248
vn -2.05951132e-08 -1 -3.02869307e-09
vn 0.262624592 -0.952910066 0.151626542
vn 0.262624592 -0.952910066 0.151626542
vn -2.05951132e-08 -1 -3.02869307e-09
vn 0.303252846 -0.952910066 5.75026711e-08
g 
f 1/1/1 3/2/2 4/3/3
f 1/1/4 4/3/5 5/4/6
f 1/1/7 5/4/8 6/5/9
f 1/1/10 6/5/11 7/6/12
f 1/1/13 7/6/14 8/7/15
f 1/1/16 8/7/17 9/8/18
f 1/1/19 9/8/20 10/9/21
f 1/1/22 10/9/23 11/10/24
f 1/1/25 11/10/26 12/11/27
f 1/1/28 12/11/29 13/12/30
f 1/1/31 13/12/32 14/13/33
f 1/1/34 14/13/35 3/2/36
f 3/2/37 15/14/38 16/15/39 4/3/40
f 4/3/41 16/15/42 17/16/43 5/4/44
f 5/4/45 17/16/46 18/17/47 6/5/48
f 6/5/49 18/17/50 19/18/51 7/6/52
f 7/6/53 19/18/54 20/19/55 8/7/56
f 8/7/57 20/19/58 21/20/59 9/8/60
f 9/8/61 21/20/62 22/21/63 10/9/64
f 10/9/65 22/21/66 23/22/67 11/10/68
f 11/10/69 23/22/70 24/23/71 12/11/72
f 12/11/73 24/23/74 25/24/75 13/12/76
f 13/12/77 25/24/78 26/25/79 14/13/80
f 14/13/81 26/25/82 15/14/83 3/2/84
f 15/14/85 27/26/86 28/27/87 16/15/88
f 16/15/89 28/27/90 29/28/91 17/16/92
f 17/16/93 29/28/94 30/29/95 18/17/96
f 18/17/97 30/29/98 31/30/99 19/18/100
f 19/18/101 31/30/102 32/31/103 20/19/104
f 20/19/105 32/31/106 33/32/107 21/20/108
f 21/20/109 33/32/110 34/33/111 22/21/112
f 22/21/113 34/33/114 35/34/115 23/22/116
f 23/22/117 35/34/118 36/35/119 24/23/120
f 24/23/121 36/35/122 37/36/123 25/24/124
f 25/24/125 37/36/126 38/37/127 26/25/128
f 26/25/129 38/37/130 27/26/131 15/14/132
f 27/38/133 39/39/134 40/40/135 28/41/136
f 28/41/137 40/40/138 41/42/139 29/43/140
f 29/44/141 41/45/142 42/46/143 30/47/144
f 30/47/145 42/46/146 43/48/147 31/49/148
f 31/49/149 43/48/150 44/50/151 32/51/152
f 32/52/153 44/53/154 45/54/155 33/55/156
f 33/55/157 45/54/158 46/56/159 34/57/160
f 34/57/161 46/56/162 47/58/163 35/59/164
f 35/60/165 47/61/166 48/62/167 36/63/168
f 36/63/169 48/62/170 49/64/171 37/65/172
f 37/65/173 49/64/174 50/66/175 38/67/176
f 38/68/177 50/69/178 39/39/179 27/38/180
f 39/39/181 51/70/182 52/71/183 40/40/184
f 40/72/185 52/73/186 53/74/187 41/45/188
f 41/45/189 53/74/190 54/75/191 42/46/192
f 42/46/193 54/75/194 55/76/195 43/48/196
f 43/48/197 55/76/198 56/77/199 44/50/200
f 44/53/201 56/78/202 57/79/203 45/54/204
f 45/54/205 57/79/206 58/80/207 46/56/208
f 46/56/209 58/80/210 59/81/211 47/58/212
f 47/61/213 59/82/214 60/83/215 48/62/216
f 48/62/217 60/83/218 61/84/219 49/64/220
f 49/64/221 61/84/222 62/85/223 50/66/224
f 50/69/225 62/86/226 51/70/227 39/39/228
f 51/70/229 63/87/230 64/88/231 52/71/232
f 52/73/233 64/89/234 65/90/235 53/74/236
f 53/74/237 65/90/238 66/91/239 54/75/240
f 54/75/241 66/91/242 67/92/243 55/76/244
f 55/76/245 67/92/246 68/93/247 56/77/248
f 56/78/249 68/94/250 69/95/251 57/79/252
f 57/79/253 69/95/254 70/96/255 58/80/256
f 58/80/257 70/96/258 71/97/259 59/81/260
f 59/82/261 71/98/262 72/99/263 60/83/264
f 60/83/265 72/99/266 73/100/267 61/84/268
f 61/84/269 73/100/270 74/101/271 62/85/272
f 62/86/273 74/102/274 63/87/275 51/70/276
f 63/87/277 75/103/278 76/104/279 64/88/280
f 64/88/281 76/104/282 77/105/283 65/106/284
f 65/90/285 77/107/286 78/108/287 66/91/288
f 66/91/289 78/108/290 79/109/291 67/92/292
f 67/92/293 79/109/294 80/110/295 68/93/296
f 68/94/297 80/111/298 81/112/299 69/95/300
f 69/95/301 81/112/302 82/113/303 70/96/304
f 70/96/305 82/113/306 83/114/307 71/97/308
f 71/98/309 83/115/310 84/116/311 72/99/312
f 72/99/313 84/116/314 85/117/315 73/100/316
f 73/100/317 85/117/318 86/118/319 74/101/320
f 74/102/321 86/119/322 75/103/323 63/87/324
f 75/103/325 87/120/326 88/121/327 76/104/328
f 76/122/329 88/123/330 89/124/331 77/107/332
f 77/107/333 89/124/334 90/125/335 78/108/336
f 78/108/337 90/125/338 91/126/339 79/109/340
f 79/109/341 91/126/342 92/127/343 80/110/344
f 80/111/345 92/128/346 93/129/347 81/112/348
f 81/112/349 93/129/350 94/130/351 82/113/352
f 82/113/353 94/130/354 95/131/355 83/114/356
f 83/115/357 95/132/358 96/133/359 84/116/360
f 84/116/361 96/133/362 97/134/363 85/117/364
f 85/117/365 97/134/366 98/135/367 86/118/368
f 86/119/369 98/136/370 87/120/371 75/103/372
f 87/137/373 99/138/374 100/139/375 88/140/376
f 88/140/377 100/139/378 101/141/379 89/142/380
f 89/142/381 101/141/382 102/143/383 90/144/384
f 90/144/385 102/143/386 103/145/387 91/146/388
f 91/146/389 103/145/390 104/147/391 92/148/392
f 92/148/393 104/147/394 105/149/395 93/150/396
f 93/150/397 105/149/398 106/151/399 94/152/400
f 94/152/401 106/151/402 107/153/403 95/154/404
f 95/154/405 107/153/406 108/155/407 96/156/408
f 96/156/409 108/155/410 109/157/411 97/158/412
f 97/158/413 109/157/414 110/159/415 98/160/416
f 98/160/417 110/159/418 99/138/419 87/137/420
f 99/138/421 111/161/422 112/162/423 100/139/424
f 100/139/425 112/162/426 113/163/427 101/141/428
f 101/141/429 113/163/430 114/164/431 102/143/432
f 102/143/433 114/164/434 115/165/435 103/145/436
f 103/145/437 115/165/438 116/166/439 104/147/440
f 104/147/441 116/166/442 117/167/443 105/149/444
f 105/149/445 117/167/446 118/168/447 106/151/448
f 106/151/449 118/168/450 119/169/451 107/153/452
f 107/153/453 119/169/454 120/170/455 108/155/456
f 108/155/457 120/170/458 121/171/459 109/157/460
f 109/157/461 121/171/462 122/172/463 110/159/464
f 110/159/465 122/172/466 111/161/467 99/138/468
f 111/161/469 2/173/470 112/162/471
f 112/162/472 2/173/473 113/163/474
f 113/163/475 2/173/476 114/164/477
f 114/164/478 2/173/479 115/165/480
f 115/165/481 2/173/482 116/166/483
f 116/166/484 2/173/485 117/167/486
f 117/167/487 2/173/488 118/168/489
f 118/168/490 2/173/491 119/169/492
f 119/169/493 2/173/494 120/170/495
f 120/170/496 2/173/497 121/171/498
f 121/171/499 2/173/500 122/172/501
f 122/172/502 2/173/503 111/161/504
