# File exported by Houdini 21.0.700 (www.sidefx.com)
# 338 points
# 1392 vertices
# 360 primitives
# Bounds: [-0.994521916, -1, -0.994521916] to [0.994521916, 1, 0.994521916]
g 
v -4.22219522e-08 1 -1.13133707e-08 0.899999976 0.449999988 0.200000003
v -4.22219522e-08 -1 -1.13133707e-08 0.899999976 0.449999988 0.200000003
v 0.207911655 0.978147626 0 0.899999976 0.449999988 0.200000003
v 0.200827241 0.978147626 -0.0538114943 0.899999976 0.449999988 0.200000003
v 0.180056766 0.978147626 -0.103955828 0.899999976 0.449999988 0.200000003
v 0.147015736 0.978147626 -0.147015736 0.899999976 0.449999988 0.200000003
v 0.10395582 0.978147626 -0.180056781 0.899999976 0.449999988 0.200000003
v 0.0538115017 0.978147626 -0.200827241 0.899999976 0.449999988 0.200000003
v 1.56968945e-08 0.978147626 -0.207911655 0.899999976 0.449999988 0.200000003
v -0.0538114719 0.978147626 -0.200827241 0.899999976 0.449999988 0.200000003
v -0.103955798 0.978147626 -0.180056795 0.899999976 0.449999988 0.200000003
v -0.147015706 0.978147626 -0.14701578 0.899999976 0.449999988 0.200000003
v -0.180056751 0.978147626 -0.10395588 0.899999976 0.449999988 0.200000003
v -0.200827226 0.978147626 -0.053811565 0.899999976 0.449999988 0.200000003
v -0.207911655 0.978147626 -8.09637868e-08 0.899999976 0.449999988 0.200000003
v -0.200827256 0.978147626 0.0538114086 0.899999976 0.449999988 0.200000003
v -0.180056825 0.978147626 0.103955738 0.899999976 0.449999988 0.200000003
v -0.147015825 0.978147626 0.147015661 0.899999976 0.449999988 0.200000003
v -0.103955887 0.978147626 0.180056736 0.899999976 0.449999988 0.200000003
v -0.0538115762 0.978147626 0.200827211 0.899999976 0.449999988 0.200000003
v -9.66606848e-08 0.978147626 0.207911655 0.899999976 0.449999988 0.200000003
v 0.05381139 0.978147626 0.200827256 0.899999976 0.449999988 0.200000003
v 0.103955723 0.978147626 0.18005684 0.899999976 0.449999988 0.200000003
v 0.147015646 0.978147626 0.14701584 0.899999976 0.449999988 0.200000003
v 0.180056706 0.978147626 0.103955954 0.899999976 0.449999988 0.200000003
v 0.200827196 0.978147626 0.0538116433 0.899999976 0.449999988 0.200000003
v 0.406736612 0.913545489 0 0.899999976 0.449999988 0.200000003
v 0.3928774 0.913545489 -0.105271183 0.899999976 0.449999988 0.200000003
v 0.352244228 0.913545489 -0.203368306 0.899999976 0.449999988 0.200000003
v 0.28760621 0.913545489 -0.28760621 0.899999976 0.449999988 0.200000003
v 0.203368291 0.913545489 -0.352244258 0.899999976 0.449999988 0.200000003
v 0.10527119 0.913545489 -0.3928774 0.899999976 0.449999988 0.200000003
v 3.07077599e-08 0.913545489 -0.406736612 0.899999976 0.449999988 0.200000003
v -0.105271131 0.913545489 -0.39287743 0.899999976 0.449999988 0.200000003
v -0.203368247 0.913545489 -0.352244288 0.899999976 0.449999988 0.200000003
v -0.28760615 0.913545489 -0.287606299 0.899999976 0.449999988 0.200000003
v -0.352244198 0.913545489 -0.20336841 0.899999976 0.449999988 0.200000003
v -0.39287737 0.913545489 -0.105271317 0.899999976 0.449999988 0.200000003
v -0.406736612 0.913545489 -1.58389085e-07 0.899999976 0.449999988 0.200000003
v -0.39287743 0.913545489 0.105271012 0.899999976 0.449999988 0.200000003
v -0.352244318 0.913545489 0.203368142 0.899999976 0.449999988 0.200000003
v -0.287606388 0.913545489 0.287606061 0.899999976 0.449999988 0.200000003
v -0.203368425 0.913545489 0.352244169 0.899999976 0.449999988 0.200000003
v -0.105271339 0.913545489 0.39287734 0.899999976 0.449999988 0.200000003
v -1.89096852e-07 0.913545489 0.406736612 0.899999976 0.449999988 0.200000003
v 0.105270974 0.913545489 0.39287743 0.899999976 0.449999988 0.200000003
v 0.203368098 0.913545489 0.352244347 0.899999976 0.449999988 0.200000003
v 0.287606031 0.913545489 0.287606418 0.899999976 0.449999988 0.200000003
v 0.352244109 0.913545489 0.203368545 0.899999976 0.449999988 0.200000003
v 0.392877311 0.913545489 0.105271474 0.899999976 0.449999988 0.200000003
v 0.587785244 0.809017003 0 0.899999976 0.449999988 0.200000003
v 0.567756951 0.809017003 -0.152130008 0.899999976 0.449999988 0.200000003
v 0.509036958 0.809017003 -0.293892622 0.899999976 0.449999988 0.200000003
v 0.415626913 0.809017003 -0.415626913 0.899999976 0.449999988 0.200000003
v 0.293892592 0.809017003 -0.509036958 0.899999976 0.449999988 0.200000003
v 0.152130038 0.809017003 -0.567756951 0.899999976 0.449999988 0.200000003
v 4.43765522e-08 0.809017003 -0.587785244 0.899999976 0.449999988 0.200000003
v -0.152129948 0.809017003 -0.567756951 0.899999976 0.449999988 0.200000003
v -0.293892533 0.809017003 -0.509037018 0.899999976 0.449999988 0.200000003
v -0.415626824 0.809017003 -0.415627033 0.899999976 0.449999988 0.200000003
v -0.509036899 0.809017003 -0.293892771 0.899999976 0.449999988 0.200000003
v -0.567756891 0.809017003 -0.152130201 0.899999976 0.449999988 0.200000003
v -0.587785244 0.809017003 -2.2889202e-07 0.899999976 0.449999988 0.200000003
v -0.56775701 0.809017003 0.152129769 0.899999976 0.449999988 0.200000003
v -0.509037077 0.809017003 0.293892384 0.899999976 0.449999988 0.200000003
v -0.415627182 0.809017003 0.415626705 0.899999976 0.449999988 0.200000003
v -0.293892801 0.809017003 0.509036839 0.899999976 0.449999988 0.200000003
v -0.152130246 0.809017003 0.567756891 0.899999976 0.449999988 0.200000003
v -2.73268597e-07 0.809017003 0.587785244 0.899999976 0.449999988 0.200000003
v 0.15212971 0.809017003 0.56775701 0.899999976 0.449999988 0.200000003
v 0.293892324 0.809017003 0.509037137 0.899999976 0.449999988 0.200000003
v 0.415626675 0.809017003 0.415627211 0.899999976 0.449999988 0.200000003
v 0.509036779 0.809017003 0.29389298 0.899999976 0.449999988 0.200000003
v 0.567756832 0.809017003 0.15213044 0.899999976 0.449999988 0.200000003
v 0.74314481 0.669130623 0 0.899999976 0.449999988 0.200000003
v 0.717822731 0.669130623 -0.192340031 0.899999976 0.449999988 0.200000003
v 0.643582284 0.669130623 -0.371572405 0.899999976 0.449999988 0.200000003
v 0.525482714 0.669130623 -0.525482714 0.899999976 0.449999988 0.200000003
v 0.371572375 0.669130623 -0.643582344 0.899999976 0.449999988 0.200000003
v 0.192340046 0.669130623 -0.717822731 0.899999976 0.449999988 0.200000003
v 5.61058719e-08 0.669130623 -0.74314481 0.899999976 0.449999988 0.200000003
v -0.192339942 0.669130623 -0.71782279 0.899999976 0.449999988 0.200000003
v -0.371572286 0.669130623 -0.643582344 0.899999976 0.449999988 0.200000003
v -0.525482595 0.669130623 -0.525482833 0.899999976 0.449999988 0.200000003
v -0.643582165 0.669130623 -0.371572584 0.899999976 0.449999988 0.200000003
v -0.717822731 0.669130623 -0.19234027 0.899999976 0.449999988 0.200000003
v -0.74314481 0.669130623 -2.89391267e-07 0.899999976 0.449999988 0.200000003
v -0.71782285 0.669130623 0.192339718 0.899999976 0.449999988 0.200000003
v -0.643582463 0.669130623 0.371572107 0.899999976 0.449999988 0.200000003
v -0.525483012 0.669130623 0.525482476 0.899999976 0.449999988 0.200000003
v -0.371572614 0.669130623 0.643582165 0.899999976 0.449999988 0.200000003
v -0.192340314 0.669130623 0.717822671 0.899999976 0.449999988 0.200000003
v -3.45497142e-07 0.669130623 0.74314481 0.899999976 0.449999988 0.200000003
v 0.192339659 0.669130623 0.71782285 0.899999976 0.449999988 0.200000003
v 0.371572018 0.669130623 0.643582523 0.899999976 0.449999988 0.200000003
v 0.525482416 0.669130623 0.525483072 0.899999976 0.449999988 0.200000003
v 0.643582046 0.669130623 0.371572852 0.899999976 0.449999988 0.200000003
v 0.717822611 0.669130623 0.192340568 0.899999976 0.449999988 0.200000003
v 0.866025388 0.5 0 0.899999976 0.449999988 0.200000003
v 0.836516261 0.5 -0.224143863 0.899999976 0.449999988 0.200000003
v 0.75 0.5 -0.433012694 0.899999976 0.449999988 0.200000003
v 0.612372398 0.5 -0.612372398 0.899999976 0.449999988 0.200000003
v 0.433012664 0.5 -0.75 0.899999976 0.449999988 0.200000003
v 0.224143893 0.5 -0.836516261 0.899999976 0.449999988 0.200000003
v 6.5383098e-08 0.5 -0.866025388 0.899999976 0.449999988 0.200000003
v -0.224143758 0.5 -0.836516321 0.899999976 0.449999988 0.200000003
v -0.433012575 0.5 -0.75000006 0.899999976 0.449999988 0.200000003
v -0.612372279 0.5 -0.612372577 0.899999976 0.449999988 0.200000003
v -0.749999881 0.5 -0.433012903 0.899999976 0.449999988 0.200000003
v -0.836516201 0.5 -0.224144146 0.899999976 0.449999988 0.200000003
v -0.866025388 0.5 -3.37242739e-07 0.899999976 0.449999988 0.200000003
v -0.83651638 0.5 0.224143505 0.899999976 0.449999988 0.200000003
v -0.750000179 0.5 0.433012336 0.899999976 0.449999988 0.200000003
v -0.612372756 0.5 0.6123721 0.899999976 0.449999988 0.200000003
v -0.433012962 0.5 0.749999821 0.899999976 0.449999988 0.200000003
v -0.224144205 0.5 0.836516201 0.899999976 0.449999988 0.200000003
v -4.02625858e-07 0.5 0.866025388 0.899999976 0.449999988 0.200000003
v 0.224143431 0.5 0.83651638 0.899999976 0.449999988 0.200000003
v 0.433012247 0.5 0.750000238 0.899999976 0.449999988 0.200000003
v 0.612372041 0.5 0.612372816 0.899999976 0.449999988 0.200000003
v 0.749999702 0.5 0.433013201 0.899999976 0.449999988 0.200000003
v 0.836516142 0.5 0.224144489 0.899999976 0.449999988 0.200000003
v 0.95105654 0.309017003 0 0.899999976 0.449999988 0.200000003
v 0.918650091 0.309017003 -0.246151537 0.899999976 0.449999988 0.200000003
v 0.823639095 0.309017003 -0.47552827 0.899999976 0.449999988 0.200000003
v 0.672498524 0.309017003 -0.672498524 0.899999976 0.449999988 0.200000003
v 0.47552824 0.309017003 -0.823639154 0.899999976 0.449999988 0.200000003
v 0.246151567 0.309017003 -0.918650091 0.899999976 0.449999988 0.200000003
v 7.18027735e-08 0.309017003 -0.95105654 0.899999976 0.449999988 0.200000003
v -0.246151432 0.309017003 -0.918650091 0.899999976 0.449999988 0.200000003
v -0.475528121 0.309017003 -0.823639214 0.899999976 0.449999988 0.200000003
v -0.672498345 0.309017003 -0.672498703 0.899999976 0.449999988 0.200000003
v -0.823638976 0.309017003 -0.475528508 0.899999976 0.449999988 0.200000003
v -0.918650031 0.309017003 -0.24615185 0.899999976 0.449999988 0.200000003
v -0.95105654 0.309017003 -3.70355082e-07 0.899999976 0.449999988 0.200000003
v -0.91865015 0.309017003 0.246151149 0.899999976 0.449999988 0.200000003
v -0.823639333 0.309017003 0.475527883 0.899999976 0.449999988 0.200000003
v -0.672498941 0.309017003 0.672498167 0.899999976 0.449999988 0.200000003
v -0.475528568 0.309017003 0.823638916 0.899999976 0.449999988 0.200000003
v -0.246151909 0.309017003 0.918649971 0.899999976 0.449999988 0.200000003
v -4.42157869e-07 0.309017003 0.95105654 0.899999976 0.449999988 0.200000003
v 0.24615106 0.309017003 0.91865015 0.899999976 0.449999988 0.200000003
v 0.475527793 0.309017003 0.823639393 0.899999976 0.449999988 0.200000003
v 0.672498107 0.309017003 0.672498941 0.899999976 0.449999988 0.200000003
v 0.823638797 0.309017003 0.475528836 0.899999976 0.449999988 0.200000003
v 0.918649912 0.309017003 0.246152222 0.899999976 0.449999988 0.200000003
v 0.994521916 0.104528464 0 0.899999976 0.449999988 0.200000003
v 0.96063441 0.104528464 -0.257401198 0.899999976 0.449999988 0.200000003
v 0.861281216 0.104528464 -0.497260958 0.899999976 0.449999988 0.200000003
v 0.703233182 0.104528464 -0.703233182 0.899999976 0.449999988 0.200000003
v 0.497260928 0.104528464 -0.861281276 0.899999976 0.449999988 0.200000003
v 0.257401228 0.104528464 -0.96063441 0.899999976 0.449999988 0.200000003
v 7.50843157e-08 0.104528464 -0.994521916 0.899999976 0.449999988 0.200000003
v -0.257401079 0.104528464 -0.96063447 0.899999976 0.449999988 0.200000003
v -0.497260809 0.104528464 -0.861281335 0.899999976 0.449999988 0.200000003
v -0.703233004 0.104528464 -0.703233361 0.899999976 0.449999988 0.200000003
v -0.861281097 0.104528464 -0.497261196 0.899999976 0.449999988 0.200000003
v -0.960634351 0.104528464 -0.257401526 0.899999976 0.449999988 0.200000003
v -0.994521916 0.104528464 -3.87281119e-07 0.899999976 0.449999988 0.200000003
v -0.96063453 0.104528464 0.257400811 0.899999976 0.449999988 0.200000003
v -0.861281455 0.104528464 0.497260541 0.899999976 0.449999988 0.200000003
v -0.7032336 0.104528464 0.703232825 0.899999976 0.449999988 0.200000003
v -0.497261256 0.104528464 0.861281037 0.899999976 0.449999988 0.200000003
v -0.257401586 0.104528464 0.960634291 0.899999976 0.449999988 0.200000003
v -4.62365449e-07 0.104528464 0.994521916 0.899999976 0.449999988 0.200000003
v 0.257400721 0.104528464 0.96063453 0.899999976 0.449999988 0.200000003
v 0.497260451 0.104528464 0.861281514 0.899999976 0.449999988 0.200000003
v 0.703232765 0.104528464 0.703233659 0.899999976 0.449999988 0.200000003
v 0.861280918 0.104528464 0.497261554 0.899999976 0.449999988 0.200000003
v 0.960634232 0.104528464 0.257401913 0.899999976 0.449999988 0.200000003
v 0.994521916 -0.104528464 0 0.899999976 0.449999988 0.200000003
v 0.96063441 -0.104528464 -0.257401198 0.899999976 0.449999988 0.200000003
v 0.861281216 -0.104528464 -0.497260958 0.899999976 0.449999988 0.200000003
v 0.703233182 -0.104528464 -0.703233182 0.899999976 0.449999988 0.200000003
v 0.497260928 -0.104528464 -0.861281276 0.899999976 0.449999988 0.200000003
v 0.257401228 -0.104528464 -0.96063441 0.899999976 0.449999988 0.200000003
v 7.50843157e-08 -0.104528464 -0.994521916 0.899999976 0.449999988 0.200000003
v -0.257401079 -0.104528464 -0.96063447 0.899999976 0.449999988 0.200000003
v -0.497260809 -0.104528464 -0.861281335 0.899999976 0.449999988 0.200000003
v -0.703233004 -0.104528464 -0.703233361 0.899999976 0.449999988 0.200000003
v -0.861281097 -0.104528464 -0.497261196 0.899999976 0.449999988 0.200000003
v -0.960634351 -0.104528464 -0.257401526 0.899999976 0.449999988 0.200000003
v -0.994521916 -0.104528464 -3.87281119e-07 0.899999976 0.449999988 0.200000003
v -0.96063453 -0.104528464 0.257400811 0.899999976 0.449999988 0.200000003
v -0.861281455 -0.104528464 0.497260541 0.899999976 0.449999988 0.200000003
v -0.7032336 -0.104528464 0.703232825 0.899999976 0.449999988 0.200000003
v -0.497261256 -0.104528464 0.861281037 0.899999976 0.449999988 0.200000003
v -0.257401586 -0.104528464 0.960634291 0.899999976 0.449999988 0.200000003
v -4.62365449e-07 -0.104528464 0.994521916 0.899999976 0.449999988 0.200000003
v 0.257400721 -0.104528464 0.96063453 0.899999976 0.449999988 0.200000003
v 0.497260451 -0.104528464 0.861281514 0.899999976 0.449999988 0.200000003
v 0.703232765 -0.104528464 0.703233659 0.899999976 0.449999988 0.200000003
v 0.861280918 -0.104528464 0.497261554 0.899999976 0.449999988 0.200000003
v 0.960634232 -0.104528464 0.257401913 0.899999976 0.449999988 0.200000003
v 0.95105654 -0.309017003 0 0.899999976 0.449999988 0.200000003
v 0.918650091 -0.309017003 -0.246151537 0.899999976 0.449999988 0.200000003
v 0.823639095 -0.309017003 -0.47552827 0.899999976 0.449999988 0.200000003
v 0.672498524 -0.309017003 -0.672498524 0.899999976 0.449999988 0.200000003
v 0.47552824 -0.309017003 -0.823639154 0.899999976 0.449999988 0.200000003
v 0.246151567 -0.309017003 -0.918650091 0.899999976 0.449999988 0.200000003
v 7.18027735e-08 -0.309017003 -0.95105654 0.899999976 0.449999988 0.200000003
v -0.246151432 -0.309017003 -0.918650091 0.899999976 0.449999988 0.200000003
v -0.475528121 -0.309017003 -0.823639214 0.899999976 0.449999988 0.200000003
v -0.672498345 -0.309017003 -0.672498703 0.899999976 0.449999988 0.200000003
v -0.823638976 -0.309017003 -0.475528508 0.899999976 0.449999988 0.200000003
v -0.918650031 -0.309017003 -0.24615185 0.899999976 0.449999988 0.200000003
v -0.95105654 -0.309017003 -3.70355082e-07 0.899999976 0.449999988 0.200000003
v -0.91865015 -0.309017003 0.246151149 0.899999976 0.449999988 0.200000003
v -0.823639333 -0.309017003 0.475527883 0.899999976 0.449999988 0.200000003
v -0.672498941 -0.309017003 0.672498167 0.899999976 0.449999988 0.200000003
v -0.475528568 -0.309017003 0.823638916 0.899999976 0.449999988 0.200000003
v -0.246151909 -0.309017003 0.918649971 0.899999976 0.449999988 0.200000003
v -4.42157869e-07 -0.309017003 0.95105654 0.899999976 0.449999988 0.200000003
v 0.24615106 -0.309017003 0.91865015 0.899999976 0.449999988 0.200000003
v 0.475527793 -0.309017003 0.823639393 0.899999976 0.449999988 0.200000003
v 0.672498107 -0.309017003 0.672498941 0.899999976 0.449999988 0.200000003
v 0.823638797 -0.309017003 0.475528836 0.899999976 0.449999988 0.200000003
v 0.918649912 -0.309017003 0.246152222 0.899999976 0.449999988 0.200000003
v 0.866025388 -0.5 0 0.899999976 0.449999988 0.200000003
v 0.836516261 -0.5 -0.224143863 0.899999976 0.449999988 0.200000003
v 0.75 -0.5 -0.433012694 0.899999976 0.449999988 0.200000003
v 0.612372398 -0.5 -0.612372398 0.899999976 0.449999988 0.200000003
v 0.433012664 -0.5 -0.75 0.899999976 0.449999988 0.200000003
v 0.224143893 -0.5 -0.836516261 0.899999976 0.449999988 0.200000003
v 6.5383098e-08 -0.5 -0.866025388 0.899999976 0.449999988 0.200000003
v -0.224143758 -0.5 -0.836516321 0.899999976 0.449999988 0.200000003
v -0.433012575 -0.5 -0.75000006 0.899999976 0.449999988 0.200000003
v -0.612372279 -0.5 -0.612372577 0.899999976 0.449999988 0.200000003
v -0.749999881 -0.5 -0.433012903 0.899999976 0.449999988 0.200000003
v -0.836516201 -0.5 -0.224144146 0.899999976 0.449999988 0.200000003
v -0.866025388 -0.5 -3.37242739e-07 0.899999976 0.449999988 0.200000003
v -0.83651638 -0.5 0.224143505 0.899999976 0.449999988 0.200000003
v -0.750000179 -0.5 0.433012336 0.899999976 0.449999988 0.200000003
v -0.612372756 -0.5 0.6123721 0.899999976 0.449999988 0.200000003
v -0.433012962 -0.5 0.749999821 0.899999976 0.449999988 0.200000003
v -0.224144205 -0.5 0.836516201 0.899999976 0.449999988 0.200000003
v -4.02625858e-07 -0.5 0.866025388 0.899999976 0.449999988 0.200000003
v 0.224143431 -0.5 0.83651638 0.899999976 0.449999988 0.200000003
v 0.433012247 -0.5 0.750000238 0.899999976 0.449999988 0.200000003
v 0.612372041 -0.5 0.612372816 0.899999976 0.449999988 0.200000003
v 0.749999702 -0.5 0.433013201 0.899999976 0.449999988 0.200000003
v 0.836516142 -0.5 0.224144489 0.899999976 0.449999988 0.200000003
v 0.74314481 -0.669130623 0 0.899999976 0.449999988 0.200000003
v 0.717822731 -0.669130623 -0.192340031 0.899999976 0.449999988 0.200000003
v 0.643582284 -0.669130623 -0.371572405 0.899999976 0.449999988 0.200000003
v 0.525482714 -0.669130623 -0.525482714 0.899999976 0.449999988 0.200000003
v 0.371572375 -0.669130623 -0.643582344 0.899999976 0.449999988 0.200000003
v 0.192340046 -0.669130623 -0.717822731 0.899999976 0.449999988 0.200000003
v 5.61058719e-08 -0.669130623 -0.74314481 0.899999976 0.449999988 0.200000003
v -0.192339942 -0.669130623 -0.71782279 0.899999976 0.449999988 0.200000003
v -0.371572286 -0.669130623 -0.643582344 0.899999976 0.449999988 0.200000003
v -0.525482595 -0.669130623 -0.525482833 0.899999976 0.449999988 0.200000003
v -0.643582165 -0.669130623 -0.371572584 0.899999976 0.449999988 0.200000003
v -0.717822731 -0.669130623 -0.19234027 0.899999976 0.449999988 0.200000003
v -0.74314481 -0.669130623 -2.89391267e-07 0.899999976 0.449999988 0.200000003
v -0.71782285 -0.669130623 0.192339718 0.899999976 0.449999988 0.200000003
v -0.643582463 -0.669130623 0.371572107 0.899999976 0.449999988 0.200000003
v -0.525483012 -0.669130623 0.525482476 0.899999976 0.449999988 0.200000003
v -0.371572614 -0.669130623 0.643582165 0.899999976 0.449999988 0.200000003
v -0.192340314 -0.669130623 0.717822671 0.899999976 0.449999988 0.200000003
v -3.45497142e-07 -0.669130623 0.74314481 0.899999976 0.449999988 0.200000003
v 0.192339659 -0.669130623 0.71782285 0.899999976 0.449999988 0.200000003
v 0.371572018 -0.669130623 0.643582523 0.899999976 0.449999988 0.200000003
v 0.525482416 -0.669130623 0.525483072 0.899999976 0.449999988 0.200000003
v 0.643582046 -0.669130623 0.371572852 0.899999976 0.449999988 0.200000003
v 0.717822611 -0.669130623 0.192340568 0.899999976 0.449999988 0.200000003
v 0.587785244 -0.809017003 0 0.899999976 0.449999988 0.200000003
v 0.567756951 -0.809017003 -0.152130008 0.899999976 0.449999988 0.200000003
v 0.509036958 -0.809017003 -0.293892622 0.899999976 0.449999988 0.200000003
v 0.415626913 -0.809017003 -0.415626913 0.899999976 0.449999988 0.200000003
v 0.293892592 -0.809017003 -0.509036958 0.899999976 0.449999988 0.200000003
v 0.152130038 -0.809017003 -0.567756951 0.899999976 0.449999988 0.200000003
v 4.43765522e-08 -0.809017003 -0.587785244 0.899999976 0.449999988 0.200000003
v -0.152129948 -0.809017003 -0.567756951 0.899999976 0.449999988 0.200000003
v -0.293892533 -0.809017003 -0.509037018 0.899999976 0.449999988 0.200000003
v -0.415626824 -0.809017003 -0.415627033 0.899999976 0.449999988 0.200000003
v -0.509036899 -0.809017003 -0.293892771 0.899999976 0.449999988 0.200000003
v -0.567756891 -0.809017003 -0.152130201 0.899999976 0.449999988 0.200000003
v -0.587785244 -0.809017003 -2.2889202e-07 0.899999976 0.449999988 0.200000003
v -0.56775701 -0.809017003 0.152129769 0.899999976 0.449999988 0.200000003
v -0.509037077 -0.809017003 0.293892384 0.899999976 0.449999988 0.200000003
v -0.415627182 -0.809017003 0.415626705 0.899999976 0.449999988 0.200000003
v -0.293892801 -0.809017003 0.509036839 0.899999976 0.449999988 0.200000003
v -0.152130246 -0.809017003 0.567756891 0.899999976 0.449999988 0.200000003
v -2.73268597e-07 -0.809017003 0.587785244 0.899999976 0.449999988 0.200000003
v 0.15212971 -0.809017003 0.56775701 0.899999976 0.449999988 0.200000003
v 0.293892324 -0.809017003 0.509037137 0.899999976 0.449999988 0.200000003
v 0.415626675 -0.809017003 0.415627211 0.899999976 0.449999988 0.200000003
v 0.509036779 -0.809017003 0.29389298 0.899999976 0.449999988 0.200000003
v 0.567756832 -0.809017003 0.15213044 0.899999976 0.449999988 0.200000003
v 0.406736612 -0.913545489 0 0.899999976 0.449999988 0.200000003
v 0.3928774 -0.913545489 -0.105271183 0.899999976 0.449999988 0.200000003
v 0.352244228 -0.913545489 -0.203368306 0.899999976 0.449999988 0.200000003
v 0.28760621 -0.913545489 -0.28760621 0.899999976 0.449999988 0.200000003
v 0.203368291 -0.913545489 -0.352244258 0.899999976 0.449999988 0.200000003
v 0.10527119 -0.913545489 -0.3928774 0.899999976 0.449999988 0.200000003
v 3.07077599e-08 -0.913545489 -0.406736612 0.899999976 0.449999988 0.200000003
v -0.105271131 -0.913545489 -0.39287743 0.899999976 0.449999988 0.200000003
v -0.203368247 -0.913545489 -0.352244288 0.899999976 0.449999988 0.200000003
v -0.28760615 -0.913545489 -0.287606299 0.899999976 0.449999988 0.200000003
v -0.352244198 -0.913545489 -0.20336841 0.899999976 0.449999988 0.200000003
v -0.39287737 -0.913545489 -0.105271317 0.899999976 0.449999988 0.200000003
v -0.406736612 -0.913545489 -1.58389085e-07 0.899999976 0.449999988 0.200000003
v -0.39287743 -0.913545489 0.105271012 0.899999976 0.449999988 0.200000003
v -0.352244318 -0.913545489 0.203368142 0.899999976 0.449999988 0.200000003
v -0.287606388 -0.913545489 0.287606061 0.899999976 0.449999988 0.200000003
v -0.203368425 -0.913545489 0.352244169 0.899999976 0.449999988 0.200000003
v -0.105271339 -0.913545489 0.39287734 0.899999976 0.449999988 0.200000003
v -1.89096852e-07 -0.913545489 0.406736612 0.899999976 0.449999988 0.200000003
v 0.105270974 -0.913545489 0.39287743 0.899999976 0.449999988 0.200000003
v 0.203368098 -0.913545489 0.352244347 0.899999976 0.449999988 0.200000003
v 0.287606031 -0.913545489 0.287606418 0.899999976 0.449999988 0.200000003
v 0.352244109 -0.913545489 0.203368545 0.899999976 0.449999988 0.200000003
v 0.392877311 -0.913545489 0.105271474 0.899999976 0.449999988 0.200000003
v 0.207911655 -0.978147626 0 0.899999976 0.449999988 0.200000003
v 0.200827241 -0.978147626 -0.0538114943 0.899999976 0.449999988 0.200000003
v 0.180056766 -0.978147626 -0.103955828 0.899999976 0.449999988 0.200000003
v 0.147015736 -0.978147626 -0.147015736 0.899999976 0.449999988 0.200000003
v 0.10395582 -0.978147626 -0.180056781 0.899999976 0.449999988 0.200000003
v 0.0538115017 -0.978147626 -0.200827241 0.899999976 0.449999988 0.200000003
v 1.56968945e-08 -0.978147626 -0.207911655 0.899999976 0.449999988 0.200000003
v -0.0538114719 -0.978147626 -0.200827241 0.899999976 0.449999988 0.200000003
v -0.103955798 -0.978147626 -0.180056795 0.899999976 0.449999988 0.200000003
v -0.147015706 -0.978147626 -0.14701578 0.899999976 0.449999988 0.200000003
v -0.180056751 -0.978147626 -0.10395588 0.899999976 0.449999988 0.200000003
v -0.200827226 -0.978147626 -0.053811565 0.899999976 0.449999988 0.200000003
v -0.207911655 -0.978147626 -8.09637868e-08 0.899999976 0.449999988 0.200000003
v -0.200827256 -0.978147626 0.0538114086 0.899999976 0.449999988 0.200000003
v -0.180056825 -0.978147626 0.103955738 0.899999976 0.449999988 0.200000003
v -0.147015825 -0.978147626 0.147015661 0.899999976 0.449999988 0.200000003
v -0.103955887 -0.978147626 0.180056736 0.899999976 0.449999988 0.200000003
v -0.0538115762 -0.978147626 0.200827211 0.899999976 0.449999988 0.200000003
v -9.66606848e-08 -0.978147626 0.207911655 0.899999976 0.449999988 0.200000003
v 0.05381139 -0.978147626 0.200827256 0.899999976 0.449999988 0.200000003
v 0.103955723 -0.978147626 0.18005684 0.899999976 0.449999988 0.200000003
v 0.147015646 -0.978147626 0.14701584 0.899999976 0.449999988 0.200000003
v 0.180056706 -0.978147626 0.103955954 0.899999976 0.449999988 0.200000003
v 0.200827196 -0.978147626 0.0538116433 0.899999976 0.449999988 0.200000003
vt 0.168879539 0.168879554 0
vt 0.216127455 0.168879554 0
vt 0.214517519 0.181108207 0
vt 0.209797427 0.192503497 0
vt 0.202288866 0.202288866 0
vt 0.192503497 0.209797427 0
vt 0.181108207 0.214517519 0
vt 0.168879554 0.216127455 0
vt 0.156650901 0.214517519 0
vt 0.14525561 0.209797442 0
vt 0.135470256 0.202288866 0
vt 0.12796168 0.192503512 0
vt 0.123241588 0.181108221 0
vt 0.12163166 0.168879569 0
vt 0.123241588 0.156650916 0
vt 0.127961665 0.145255625 0
vt 0.135470226 0.135470271 0
vt 0.145255595 0.12796168 0
vt 0.156650886 0.123241603 0
vt 0.168879524 0.12163166 0
vt 0.181108177 0.123241588 0
vt 0.192503482 0.12796165 0
vt 0.202288836 0.135470212 0
vt 0.209797412 0.145255581 0
vt 0.214517504 0.156650856 0
vt 0.261310369 0.168879554 0
vt 0.258160889 0.192802414 0
vt 0.248926997 0.215094969 0
vt 0.234238014 0.234238014 0
vt 0.215094969 0.248927027 0
vt 0.192802414 0.258160889 0
vt 0.168879569 0.261310369 0
vt 0.144956693 0.258160889 0
vt 0.122664146 0.248927027 0
vt 0.103521094 0.234238043 0
vt 0.0888321102 0.215094998 0
vt 0.0795982257 0.192802459 0
vt 0.0764487162 0.168879598 0
vt 0.0795982108 0.144956723 0
vt 0.0888320804 0.122664176 0
vt 0.103521042 0.103521116 0
vt 0.122664109 0.0888321176 0
vt 0.144956663 0.0795982331 0
vt 0.168879509 0.0764487162 0
vt 0.19280237 0.0795982108 0
vt 0.215094939 0.0888320729 0
vt 0.234237999 0.103521034 0
vt 0.248926967 0.122664079 0
vt 0.258160859 0.144956633 0
vt 0.302453667 0.168879554 0
vt 0.297902256 0.203451082 0
vt 0.284558147 0.235666603 0
vt 0.263330728 0.263330728 0
vt 0.235666603 0.284558147 0
vt 0.203451097 0.297902256 0
vt 0.168879569 0.302453667 0
vt 0.13430804 0.297902256 0
vt 0.102092519 0.284558147 0
vt 0.0744284168 0.263330758 0
vt 0.05320099 0.235666648 0
vt 0.0398568809 0.203451112 0
vt 0.0353054404 0.168879613 0
vt 0.0398568548 0.134308085 0
vt 0.053200949 0.102092549 0
vt 0.0744283348 0.0744284466 0
vt 0.10209246 0.0532010049 0
vt 0.134307981 0.0398568809 0
vt 0.168879494 0.0353054404 0
vt 0.203451008 0.0398568548 0
vt 0.235666543 0.0532009378 0
vt 0.263330668 0.0744283274 0
vt 0.284558088 0.102092415 0
vt 0.297902226 0.134307936 0
vt 0.337759107 0.168879554 0
vt 0.332004666 0.212588802 0
vt 0.315133542 0.253319353 0
vt 0.288295418 0.288295418 0
vt 0.253319353 0.315133542 0
vt 0.212588817 0.332004666 0
vt 0.168879569 0.337759107 0
vt 0.12517032 0.332004666 0
vt 0.0844398066 0.315133542 0
vt 0.049463708 0.288295448 0
vt 0.0226255972 0.253319353 0
vt 0.00575443916 0.212588847 0
vt 0 0.168879628 0
vt 0.00575441215 0.12517038 0
vt 0.0226255301 0.0844398439 0
vt 0.0494636148 0.049463734 0
vt 0.0844397321 0.0226255972 0
vt 0.125170246 0.00575445266 0
vt 0.168879479 0 0
vt 0.212588713 0.00575441215 0
vt 0.253319234 0.0226255152 0
vt 0.288295358 0.0494635999 0
vt 0.315133482 0.0844396725 0
vt 0.332004637 0.125170186 0
vt 0.515569389 0.659879267 0
vt 0.515569389 0.621444345 0
vt 0.566506088 0.621444345 0
vt 0.559278667 0.659879267 0
vt 0.613971472 0.621444345 0
vt 0.600009143 0.659879267 0
vt 0.654730916 0.621444345 0
vt 0.634985209 0.659879267 0
vt 0.378013521 0.981999457 0
vt 0.358267844 0.943564475 0
vt 0.399027318 0.943564475 0
vt 0.412989616 0.981999457 0
vt 0.446492732 0.943564475 0
vt 0.453720152 0.981999457 0
vt 0.497429401 0.943564475 0
vt 0.497429401 0.981999457 0
vt 0.54836601 0.943564475 0
vt 0.541138589 0.981999457 0
vt 0.595831394 0.943564475 0
vt 0.581869125 0.981999457 0
vt 0.636590958 0.943564475 0
vt 0.61684525 0.981999457 0
vt 0.0403937809 0.981999457 0
vt 0.0206481013 0.943564475 0
vt 0.0614075623 0.943564475 0
vt 0.0753698647 0.981999457 0
vt 0.108872958 0.943564475 0
vt 0.116100386 0.981999457 0
vt 0.159809604 0.943564475 0
vt 0.159809619 0.981999457 0
vt 0.210746258 0.943564475 0
vt 0.203518853 0.981999457 0
vt 0.258211672 0.943564475 0
vt 0.244249403 0.981999457 0
vt 0.298971146 0.943564475 0
vt 0.279225528 0.981999457 0
vt 0.0403937958 0.659879267 0
vt 0.0206481144 0.621444345 0
vt 0.0614076033 0.621444345 0
vt 0.0753699094 0.659879267 0
vt 0.108872995 0.621444345 0
vt 0.11610043 0.659879267 0
vt 0.159809649 0.621444345 0
vt 0.159809649 0.659879267 0
vt 0.210746303 0.621444345 0
vt 0.203518897 0.659879267 0
vt 0.258211702 0.621444345 0
vt 0.244249433 0.659879267 0
vt 0.298971206 0.621444345 0
vt 0.279225558 0.659879267 0
vt 0.39615339 0.659879267 0
vt 0.376407713 0.621444345 0
vt 0.417167187 0.621444345 0
vt 0.431129485 0.659879267 0
vt 0.464632571 0.621444345 0
vt 0.471859992 0.659879267 0
vt 0.515569389 0.57804352 0
vt 0.571507275 0.57804352 0
vt 0.623633087 0.57804352 0
vt 0.668394566 0.57804352 0
vt 0.344604194 0.900163651 0
vt 0.389365673 0.900163651 0
vt 0.441491485 0.900163651 0
vt 0.497429401 0.900163651 0
vt 0.553367257 0.900163651 0
vt 0.605493128 0.900163651 0
vt 0.650254488 0.900163651 0
vt 0.00698444666 0.900163651 0
vt 0.0517458953 0.900163651 0
vt 0.103871703 0.900163651 0
vt 0.159809604 0.900163651 0
vt 0.215747491 0.900163651 0
vt 0.267873317 0.900163651 0
vt 0.312634796 0.900163651 0
vt 0.00698444666 0.57804352 0
vt 0.0517459363 0.57804352 0
vt 0.103871748 0.57804352 0
vt 0.159809649 0.57804352 0
vt 0.215747535 0.57804352 0
vt 0.267873347 0.57804352 0
vt 0.312634826 0.57804352 0
vt 0.362744093 0.57804352 0
vt 0.407505512 0.57804352 0
vt 0.459631324 0.57804352 0
vt 0.515569389 0.531573534 0
vt 0.574063778 0.531573534 0
vt 0.628571868 0.531573534 0
vt 0.675379038 0.531573534 0
vt 0.337619722 0.853693664 0
vt 0.384426922 0.853693664 0
vt 0.438934982 0.853693664 0
vt 0.497429401 0.853693664 0
vt 0.5559237 0.853693664 0
vt 0.61043185 0.853693664 0
vt 0.65723896 0.853693664 0
vt 0 0.853693664 0
vt 0.0468071476 0.853693664 0
vt 0.101315223 0.853693664 0
vt 0.159809604 0.853693664 0
vt 0.218303978 0.853693664 0
vt 0.272812068 0.853693664 0
vt 0.319619268 0.853693664 0
vt 0 0.531573534 0
vt 0.0468071848 0.531573534 0
vt 0.10131526 0.531573534 0
vt 0.159809634 0.531573534 0
vt 0.218304023 0.531573534 0
vt 0.272812098 0.531573534 0
vt 0.319619298 0.531573534 0
vt 0.355759621 0.531573534 0
vt 0.402566761 0.531573534 0
vt 0.457074821 0.531573534 0
vt 0.515569389 0.484065354 0
vt 0.574063778 0.484065354 0
vt 0.628571868 0.484065354 0
vt 0.675379038 0.484065354 0
vt 0.337619722 0.806185544 0
vt 0.384426922 0.806185544 0
vt 0.438934982 0.806185544 0
vt 0.497429401 0.806185544 0
vt 0.5559237 0.806185544 0
vt 0.61043185 0.806185544 0
vt 0.65723896 0.806185544 0
vt 0 0.806185544 0
vt 0.0468071476 0.806185544 0
vt 0.101315223 0.806185544 0
vt 0.159809604 0.806185544 0
vt 0.218303978 0.806185544 0
vt 0.272812068 0.806185544 0
vt 0.319619268 0.806185544 0
vt 0 0.484065354 0
vt 0.0468071848 0.484065354 0
vt 0.10131526 0.484065354 0
vt 0.159809634 0.484065354 0
vt 0.218304023 0.484065354 0
vt 0.272812098 0.484065354 0
vt 0.319619298 0.484065354 0
vt 0.355759621 0.484065354 0
vt 0.402566761 0.484065354 0
vt 0.457074821 0.484065354 0
vt 0.515569389 0.437595367 0
vt 0.571507275 0.437595367 0
vt 0.623633087 0.437595367 0
vt 0.668394566 0.437595367 0
vt 0.344604194 0.759715557 0
vt 0.389365673 0.759715557 0
vt 0.441491485 0.759715557 0
vt 0.497429401 0.759715557 0
vt 0.553367257 0.759715557 0
vt 0.605493128 0.759715557 0
vt 0.650254488 0.759715557 0
vt 0.00698444666 0.759715557 0
vt 0.0517458953 0.759715557 0
vt 0.103871703 0.759715557 0
vt 0.159809604 0.759715557 0
vt 0.215747491 0.759715557 0
vt 0.267873317 0.759715557 0
vt 0.312634796 0.759715557 0
vt 0.00698444666 0.437595367 0
vt 0.0517459363 0.437595367 0
vt 0.103871748 0.437595367 0
vt 0.159809649 0.437595367 0
vt 0.215747535 0.437595367 0
vt 0.267873347 0.437595367 0
vt 0.312634826 0.437595367 0
vt 0.362744093 0.437595367 0
vt 0.407505512 0.437595367 0
vt 0.459631324 0.437595367 0
vt 0.515569389 0.394194514 0
vt 0.566506088 0.394194514 0
vt 0.613971472 0.394194514 0
vt 0.654730916 0.394194514 0
vt 0.358267844 0.716314673 0
vt 0.399027318 0.716314673 0
vt 0.446492732 0.716314673 0
vt 0.497429401 0.716314673 0
vt 0.54836601 0.716314673 0
vt 0.595831394 0.716314673 0
vt 0.636590958 0.716314673 0
vt 0.0206481013 0.716314673 0
vt 0.0614075623 0.716314673 0
vt 0.108872958 0.716314673 0
vt 0.159809604 0.716314673 0
vt 0.210746258 0.716314673 0
vt 0.258211672 0.716314673 0
vt 0.298971146 0.716314673 0
vt 0.0206481144 0.394194514 0
vt 0.0614076033 0.394194514 0
vt 0.108872995 0.394194514 0
vt 0.159809649 0.394194514 0
vt 0.210746303 0.394194514 0
vt 0.258211702 0.394194514 0
vt 0.298971206 0.394194514 0
vt 0.376407713 0.394194514 0
vt 0.417167187 0.394194514 0
vt 0.464632571 0.394194514 0
vt 0.515569389 0.355759621 0
vt 0.559278667 0.355759621 0
vt 0.600009143 0.355759621 0
vt 0.634985209 0.355759621 0
vt 0.378013521 0.67787981 0
vt 0.412989616 0.67787981 0
vt 0.453720152 0.67787981 0
vt 0.497429401 0.67787981 0
vt 0.541138589 0.67787981 0
vt 0.581869125 0.67787981 0
vt 0.61684525 0.67787981 0
vt 0.0403937809 0.67787981 0
vt 0.0753698647 0.67787981 0
vt 0.116100386 0.67787981 0
vt 0.159809619 0.67787981 0
vt 0.203518853 0.67787981 0
vt 0.244249403 0.67787981 0
vt 0.279225528 0.67787981 0
vt 0.0403937958 0.355759621 0
vt 0.0753699094 0.355759621 0
vt 0.11610043 0.355759621 0
vt 0.159809649 0.355759621 0
vt 0.203518897 0.355759621 0
vt 0.244249433 0.355759621 0
vt 0.279225558 0.355759621 0
vt 0.39615339 0.355759621 0
vt 0.431129485 0.355759621 0
vt 0.471859992 0.355759621 0
vt 0.693518698 0.168879554 0
vt 0.658213258 0.168879554 0
vt 0.653661847 0.134308025 0
vt 0.687764287 0.125170305 0
vt 0.640317738 0.102092497 0
vt 0.670893133 0.0844397768 0
vt 0.619090319 0.0744283944 0
vt 0.644055009 0.0494636819 0
vt 0.591426194 0.0532009751 0
vt 0.609078884 0.0226255562 0
vt 0.559210718 0.039856866 0
vt 0.568348408 0.00575443916 0
vt 0.52463913 0.0353054404 0
vt 0.52463913 0 0
vt 0.490067661 0.039856866 0
vt 0.480929941 0.00575442566 0
vt 0.457852095 0.0532009639 0
vt 0.440199405 0.0226255562 0
vt 0.43018803 0.0744283721 0
vt 0.40522328 0.0494636521 0
vt 0.408960581 0.10209246 0
vt 0.378385216 0.0844397396 0
vt 0.395616472 0.134307995 0
vt 0.361514032 0.125170261 0
vt 0.391065031 0.168879494 0
vt 0.355759621 0.168879494 0
vt 0.395616442 0.203451023 0
vt 0.361514032 0.212588727 0
vt 0.408960551 0.235666543 0
vt 0.378385127 0.253319263 0
vt 0.430187911 0.263330668 0
vt 0.405223221 0.288295388 0
vt 0.457852036 0.284558117 0
vt 0.440199316 0.315133512 0
vt 0.490067542 0.297902226 0
vt 0.480929822 0.332004666 0
vt 0.52463907 0.302453667 0
vt 0.52463907 0.337759107 0
vt 0.559210598 0.297902256 0
vt 0.568348289 0.332004696 0
vt 0.591426134 0.284558177 0
vt 0.609078825 0.315133601 0
vt 0.619090259 0.263330787 0
vt 0.644054949 0.288295507 0
vt 0.640317678 0.235666707 0
vt 0.670893073 0.253319442 0
vt 0.653661847 0.203451172 0
vt 0.687764227 0.212588921 0
vt 0.61706996 0.168879554 0
vt 0.61392045 0.144956693 0
vt 0.604686558 0.122664139 0
vt 0.589997649 0.103521086 0
vt 0.570854545 0.0888320953 0
vt 0.54856199 0.0795982182 0
vt 0.52463913 0.0764487162 0
vt 0.500716329 0.0795982108 0
vt 0.478423744 0.0888320878 0
vt 0.45928067 0.103521064 0
vt 0.444591731 0.122664109 0
vt 0.435357839 0.144956663 0
vt 0.4322083 0.168879509 0
vt 0.435357809 0.192802384 0
vt 0.444591671 0.215094939 0
vt 0.45928061 0.234237999 0
vt 0.478423715 0.248926997 0
vt 0.500716269 0.258160859 0
vt 0.52463907 0.261310369 0
vt 0.548561931 0.258160889 0
vt 0.570854545 0.248927027 0
vt 0.58999759 0.234238073 0
vt 0.604686558 0.215095028 0
vt 0.61392045 0.192802474 0
vt 0.571887076 0.168879554 0
vt 0.570277154 0.156650901 0
vt 0.565557063 0.14525561 0
vt 0.558048487 0.135470241 0
vt 0.548263073 0.12796168 0
vt 0.536867797 0.123241588 0
vt 0.52463913 0.12163166 0
vt 0.512410462 0.123241588 0
vt 0.501015246 0.127961665 0
vt 0.491229832 0.135470241 0
vt 0.483721256 0.145255595 0
vt 0.479001224 0.156650886 0
vt 0.477391243 0.168879539 0
vt 0.479001164 0.181108192 0
vt 0.483721256 0.192503482 0
vt 0.491229832 0.202288836 0
vt 0.501015186 0.209797427 0
vt 0.512410462 0.214517504 0
vt 0.52463913 0.216127455 0
vt 0.536867738 0.214517519 0
vt 0.548263073 0.209797457 0
vt 0.558048427 0.202288896 0
vt 0.565557063 0.192503527 0
vt 0.570277095 0.181108251 0
vt 0.52463913 0.168879554 0
g 
f 1/1 3/2 4/3
f 1/1 4/3 5/4
f 1/1 5/4 6/5
f 1/1 6/5 7/6
f 1/1 7/6 8/7
f 1/1 8/7 9/8
f 1/1 9/8 10/9
f 1/1 10/9 11/10
f 1/1 11/10 12/11
f 1/1 12/11 13/12
f 1/1 13/12 14/13
f 1/1 14/13 15/14
f 1/1 15/14 16/15
f 1/1 16/15 17/16
f 1/1 17/16 18/17
f 1/1 18/17 19/18
f 1/1 19/18 20/19
f 1/1 20/19 21/20
f 1/1 21/20 22/21
f 1/1 22/21 23/22
f 1/1 23/22 24/23
f 1/1 24/23 25/24
f 1/1 25/24 26/25
f 1/1 26/25 3/2
f 3/2 27/26 28/27 4/3
f 4/3 28/27 29/28 5/4
f 5/4 29/28 30/29 6/5
f 6/5 30/29 31/30 7/6
f 7/6 31/30 32/31 8/7
f 8/7 32/31 33/32 9/8
f 9/8 33/32 34/33 10/9
f 10/9 34/33 35/34 11/10
f 11/10 35/34 36/35 12/11
f 12/11 36/35 37/36 13/12
f 13/12 37/36 38/37 14/13
f 14/13 38/37 39/38 15/14
f 15/14 39/38 40/39 16/15
f 16/15 40/39 41/40 17/16
f 17/16 41/40 42/41 18/17
f 18/17 42/41 43/42 19/18
f 19/18 43/42 44/43 20/19
f 20/19 44/43 45/44 21/20
f 21/20 45/44 46/45 22/21
f 22/21 46/45 47/46 23/22
f 23/22 47/46 48/47 24/23
f 24/23 48/47 49/48 25/24
f 25/24 49/48 50/49 26/25
f 26/25 50/49 27/26 3/2
f 27/26 51/50 52/51 28/27
f 28/27 52/51 53/52 29/28
f 29/28 53/52 54/53 30/29
f 30/29 54/53 55/54 31/30
f 31/30 55/54 56/55 32/31
f 32/31 56/55 57/56 33/32
f 33/32 57/56 58/57 34/33
f 34/33 58/57 59/58 35/34
f 35/34 59/58 60/59 36/35
f 36/35 60/59 61/60 37/36
f 37/36 61/60 62/61 38/37
f 38/37 62/61 63/62 39/38
f 39/38 63/62 64/63 40/39
f 40/39 64/63 65/64 41/40
f 41/40 65/64 66/65 42/41
f 42/41 66/65 67/66 43/42
f 43/42 67/66 68/67 44/43
f 44/43 68/67 69/68 45/44
f 45/44 69/68 70/69 46/45
f 46/45 70/69 71/70 47/46
f 47/46 71/70 72/71 48/47
f 48/47 72/71 73/72 49/48
f 49/48 73/72 74/73 50/49
f 50/49 74/73 51/50 27/26
f 51/50 75/74 76/75 52/51
f 52/51 76/75 77/76 53/52
f 53/52 77/76 78/77 54/53
f 54/53 78/77 79/78 55/54
f 55/54 79/78 80/79 56/55
f 56/55 80/79 81/80 57/56
f 57/56 81/80 82/81 58/57
f 58/57 82/81 83/82 59/58
f 59/58 83/82 84/83 60/59
f 60/59 84/83 85/84 61/60
f 61/60 85/84 86/85 62/61
f 62/61 86/85 87/86 63/62
f 63/62 87/86 88/87 64/63
f 64/63 88/87 89/88 65/64
f 65/64 89/88 90/89 66/65
f 66/65 90/89 91/90 67/66
f 67/66 91/90 92/91 68/67
f 68/67 92/91 93/92 69/68
f 69/68 93/92 94/93 70/69
f 70/69 94/93 95/94 71/70
f 71/70 95/94 96/95 72/71
f 72/71 96/95 97/96 73/72
f 73/72 97/96 98/97 74/73
f 74/73 98/97 75/74 51/50
f 75/98 99/99 100/100 76/101
f 76/101 100/100 101/102 77/103
f 77/103 101/102 102/104 78/105
f 78/106 102/107 103/108 79/109
f 79/109 103/108 104/110 80/111
f 80/111 104/110 105/112 81/113
f 81/113 105/112 106/114 82/115
f 82/115 106/114 107/116 83/117
f 83/117 107/116 108/118 84/119
f 84/120 108/121 109/122 85/123
f 85/123 109/122 110/124 86/125
f 86/125 110/124 111/126 87/127
f 87/127 111/126 112/128 88/129
f 88/129 112/128 113/130 89/131
f 89/131 113/130 114/132 90/133
f 90/134 114/135 115/136 91/137
f 91/137 115/136 116/138 92/139
f 92/139 116/138 117/140 93/141
f 93/141 117/140 118/142 94/143
f 94/143 118/142 119/144 95/145
f 95/145 119/144 120/146 96/147
f 96/148 120/149 121/150 97/151
f 97/151 121/150 122/152 98/153
f 98/153 122/152 99/99 75/98
f 99/99 123/154 124/155 100/100
f 100/100 124/155 125/156 101/102
f 101/102 125/156 126/157 102/104
f 102/107 126/158 127/159 103/108
f 103/108 127/159 128/160 104/110
f 104/110 128/160 129/161 105/112
f 105/112 129/161 130/162 106/114
f 106/114 130/162 131/163 107/116
f 107/116 131/163 132/164 108/118
f 108/121 132/165 133/166 109/122
f 109/122 133/166 134/167 110/124
f 110/124 134/167 135/168 111/126
f 111/126 135/168 136/169 112/128
f 112/128 136/169 137/170 113/130
f 113/130 137/170 138/171 114/132
f 114/135 138/172 139/173 115/136
f 115/136 139/173 140/174 116/138
f 116/138 140/174 141/175 117/140
f 117/140 141/175 142/176 118/142
f 118/142 142/176 143/177 119/144
f 119/144 143/177 144/178 120/146
f 120/149 144/179 145/180 121/150
f 121/150 145/180 146/181 122/152
f 122/152 146/181 123/154 99/99
f 123/154 147/182 148/183 124/155
f 124/155 148/183 149/184 125/156
f 125/156 149/184 150/185 126/157
f 126/158 150/186 151/187 127/159
f 127/159 151/187 152/188 128/160
f 128/160 152/188 153/189 129/161
f 129/161 153/189 154/190 130/162
f 130/162 154/190 155/191 131/163
f 131/163 155/191 156/192 132/164
f 132/165 156/193 157/194 133/166
f 133/166 157/194 158/195 134/167
f 134/167 158/195 159/196 135/168
f 135/168 159/196 160/197 136/169
f 136/169 160/197 161/198 137/170
f 137/170 161/198 162/199 138/171
f 138/172 162/200 163/201 139/173
f 139/173 163/201 164/202 140/174
f 140/174 164/202 165/203 141/175
f 141/175 165/203 166/204 142/176
f 142/176 166/204 167/205 143/177
f 143/177 167/205 168/206 144/178
f 144/179 168/207 169/208 145/180
f 145/180 169/208 170/209 146/181
f 146/181 170/209 147/182 123/154
f 147/182 171/210 172/211 148/183
f 148/183 172/211 173/212 149/184
f 149/184 173/212 174/213 150/185
f 150/186 174/214 175/215 151/187
f 151/187 175/215 176/216 152/188
f 152/188 176/216 177/217 153/189
f 153/189 177/217 178/218 154/190
f 154/190 178/218 179/219 155/191
f 155/191 179/219 180/220 156/192
f 156/193 180/221 181/222 157/194
f 157/194 181/222 182/223 158/195
f 158/195 182/223 183/224 159/196
f 159/196 183/224 184/225 160/197
f 160/197 184/225 185/226 161/198
f 161/198 185/226 186/227 162/199
f 162/200 186/228 187/229 163/201
f 163/201 187/229 188/230 164/202
f 164/202 188/230 189/231 165/203
f 165/203 189/231 190/232 166/204
f 166/204 190/232 191/233 167/205
f 167/205 191/233 192/234 168/206
f 168/207 192/235 193/236 169/208
f 169/208 193/236 194/237 170/209
f 170/209 194/237 171/210 147/182
f 171/210 195/238 196/239 172/211
f 172/211 196/239 197/240 173/212
f 173/212 197/240 198/241 174/213
f 174/214 198/242 199/243 175/215
f 175/215 199/243 200/244 176/216
f 176/216 200/244 201/245 177/217
f 177/217 201/245 202/246 178/218
f 178/218 202/246 203/247 179/219
f 179/219 203/247 204/248 180/220
f 180/221 204/249 205/250 181/222
f 181/222 205/250 206/251 182/223
f 182/223 206/251 207/252 183/224
f 183/224 207/252 208/253 184/225
f 184/225 208/253 209/254 185/226
f 185/226 209/254 210/255 186/227
f 186/228 210/256 211/257 187/229
f 187/229 211/257 212/258 188/230
f 188/230 212/258 213/259 189/231
f 189/231 213/259 214/260 190/232
f 190/232 214/260 215/261 191/233
f 191/233 215/261 216/262 192/234
f 192/235 216/263 217/264 193/236
f 193/236 217/264 218/265 194/237
f 194/237 218/265 195/238 171/210
f 195/238 219/266 220/267 196/239
f 196/239 220/267 221/268 197/240
f 197/240 221/268 222/269 198/241
f 198/242 222/270 223/271 199/243
f 199/243 223/271 224/272 200/244
f 200/244 224/272 225/273 201/245
f 201/245 225/273 226/274 202/246
f 202/246 226/274 227/275 203/247
f 203/247 227/275 228/276 204/248
f 204/249 228/277 229/278 205/250
f 205/250 229/278 230/279 206/251
f 206/251 230/279 231/280 207/252
f 207/252 231/280 232/281 208/253
f 208/253 232/281 233/282 209/254
f 209/254 233/282 234/283 210/255
f 210/256 234/284 235/285 211/257
f 211/257 235/285 236/286 212/258
f 212/258 236/286 237/287 213/259
f 213/259 237/287 238/288 214/260
f 214/260 238/288 239/289 215/261
f 215/261 239/289 240/290 216/262
f 216/263 240/291 241/292 217/264
f 217/264 241/292 242/293 218/265
f 218/265 242/293 219/266 195/238
f 219/266 243/294 244/295 220/267
f 220/267 244/295 245/296 221/268
f 221/268 245/296 246/297 222/269
f 222/270 246/298 247/299 223/271
f 223/271 247/299 248/300 224/272
f 224/272 248/300 249/301 225/273
f 225/273 249/301 250/302 226/274
f 226/274 250/302 251/303 227/275
f 227/275 251/303 252/304 228/276
f 228/277 252/305 253/306 229/278
f 229/278 253/306 254/307 230/279
f 230/279 254/307 255/308 231/280
f 231/280 255/308 256/309 232/281
f 232/281 256/309 257/310 233/282
f 233/282 257/310 258/311 234/283
f 234/284 258/312 259/313 235/285
f 235/285 259/313 260/314 236/286
f 236/286 260/314 261/315 237/287
f 237/287 261/315 262/316 238/288
f 238/288 262/316 263/317 239/289
f 239/289 263/317 264/318 240/290
f 240/291 264/319 265/320 241/292
f 241/292 265/320 266/321 242/293
f 242/293 266/321 243/294 219/266
f 243/322 267/323 268/324 244/325
f 244/325 268/324 269/326 245/327
f 245/327 269/326 270/328 246/329
f 246/329 270/328 271/330 247/331
f 247/331 271/330 272/332 248/333
f 248/333 272/332 273/334 249/335
f 249/335 273/334 274/336 250/337
f 250/337 274/336 275/338 251/339
f 251/339 275/338 276/340 252/341
f 252/341 276/340 277/342 253/343
f 253/343 277/342 278/344 254/345
f 254/345 278/344 279/346 255/347
f 255/347 279/346 280/348 256/349
f 256/349 280/348 281/350 257/351
f 257/351 281/350 282/352 258/353
f 258/353 282/352 283/354 259/355
f 259/355 283/354 284/356 260/357
f 260/357 284/356 285/358 261/359
f 261/359 285/358 286/360 262/361
f 262/361 286/360 287/362 263/363
f 263/363 287/362 288/364 264/365
f 264/365 288/364 289/366 265/367
f 265/367 289/366 290/368 266/369
f 266/369 290/368 267/323 243/322
f 267/323 291/370 292/371 268/324
f 268/324 292/371 293/372 269/326
f 269/326 293/372 294/373 270/328
f 270/328 294/373 295/374 271/330
f 271/330 295/374 296/375 272/332
f 272/332 296/375 297/376 273/334
f 273/334 297/376 298/377 274/336
f 274/336 298/377 299/378 275/338
f 275/338 299/378 300/379 276/340
f 276/340 300/379 301/380 277/342
f 277/342 301/380 302/381 278/344
f 278/344 302/381 303/382 279/346
f 279/346 303/382 304/383 280/348
f 280/348 304/383 305/384 281/350
f 281/350 305/384 306/385 282/352
f 282/352 306/385 307/386 283/354
f 283/354 307/386 308/387 284/356
f 284/356 308/387 309/388 285/358
f 285/358 309/388 310/389 286/360
f 286/360 310/389 311/390 287/362
f 287/362 311/390 312/391 288/364
f 288/364 312/391 313/392 289/366
f 289/366 313/392 314/393 290/368
f 290/368 314/393 291/370 267/323
f 291/370 315/394 316/395 292/371
f 292/371 316/395 317/396 293/372
f 293/372 317/396 318/397 294/373
f 294/373 318/397 319/398 295/374
f 295/374 319/398 320/399 296/375
f 296/375 320/399 321/400 297/376
f 297/376 321/400 322/401 298/377
f 298/377 322/401 323/402 299/378
f 299/378 323/402 324/403 300/379
f 300/379 324/403 325/404 301/380
f 301/380 325/404 326/405 302/381
f 302/381 326/405 327/406 303/382
f 303/382 327/406 328/407 304/383
f 304/383 328/407 329/408 305/384
f 305/384 329/408 330/409 306/385
f 306/385 330/409 331/410 307/386
f 307/386 331/410 332/411 308/387
f 308/387 332/411 333/412 309/388
f 309/388 333/412 334/413 310/389
f 310/389 334/413 335/414 311/390
f 311/390 335/414 336/415 312/391
f 312/391 336/415 337/416 313/392
f 313/392 337/416 338/417 314/393
f 314/393 338/417 315/394 291/370
f 315/394 2/418 316/395
f 316/395 2/418 317/396
f 317/396 2/418 318/397
f 318/397 2/418 319/398
f 319/398 2/418 320/399
f 320/399 2/418 321/400
f 321/400 2/418 322/401
f 322/401 2/418 323/402
f 323/402 2/418 324/403
f 324/403 2/418 325/404
f 325/404 2/418 326/405
f 326/405 2/418 327/406
f 327/406 2/418 328/407
f 328/407 2/418 329/408
f 329/408 2/418 330/409
f 330/409 2/418 331/410
f 331/410 2/418 332/411
f 332/411 2/418 333/412
f 333/412 2/418 334/413
f 334/413 2/418 335/414
f 335/414 2/418 336/415
f 336/415 2/418 337/416
f 337/416 2/418 338/417
f 338/417 2/418 315/394
